<?xml version="1.0" encoding="utf-8"?>
<!-- Generator: Adobe Illustrator 24.0.1, SVG Export Plug-In . SVG Version: 6.00 Build 0)  -->
<svg version="1.1" id="Layer_1" xmlns="http://www.w3.org/2000/svg" xmlns:xlink="http://www.w3.org/1999/xlink" x="0px" y="0px"
	 viewBox="0 0 80 80" style="enable-background:new 0 0 80 80;" xml:space="preserve">
<style type="text/css">
	.st0{fill:none;stroke:#000000;stroke-width:15;stroke-miterlimit:10;}
</style>
<g>
	<path d="M23.37,11.16c0-1.21-0.03-2.23,0.01-3.24c0.08-2.22,1.59-3.73,3.7-3.71c2.03,0.01,3.51,1.48,3.62,3.63
		c0.05,1.02,0.01,2.04,0.01,3.2c6.97,0,13.79,0,20.81,0c0-1.02-0.04-1.98,0.01-2.94c0.11-2.35,1.63-3.91,3.74-3.89
		c2.1,0.02,3.5,1.46,3.64,3.79c0.06,0.97,0.01,1.95,0.01,3.17c1.09,0,2.05-0.01,3,0c6.39,0.1,10.99,4.49,11.03,10.85
		c0.08,14.09,0.08,28.17,0,42.26c-0.03,6.23-4.57,10.64-10.79,10.66c-14.09,0.03-28.17,0.03-42.26,0
		C14.15,74.91,9.67,70.6,9.31,64.86c-0.09-1.41-0.08-2.83-0.08-4.24c-0.01-12.4,0-24.8-0.01-37.2c0-7.9,4.28-12.23,12.16-12.26
		C21.96,11.16,22.55,11.16,23.37,11.16z M16.64,39.76c0,0.66,0,1.15,0,1.63c0,7.34,0,14.67,0.01,22.01c0,3.08,1.11,4.18,4.24,4.18
		c13.48,0.01,26.96,0.01,40.44,0c3.22,0,4.27-1.06,4.27-4.31c0.01-7.28,0-14.57-0.01-21.85c0-0.53-0.06-1.05-0.09-1.67
		C49.21,39.76,33.04,39.76,16.64,39.76z M16.68,32.34c0.85,0,1.49,0,2.14,0c6.8,0,13.59,0,20.39,0c8.27,0,16.53-0.02,24.8,0.02
		c1.15,0.01,1.66-0.26,1.63-1.54c-0.09-2.99,0.02-5.98-0.06-8.97c-0.06-2.4-1.57-3.26-4.98-3.33c-2.59-0.05-1.44,1.8-1.7,2.96
		c-0.06,0.26-0.01,0.54-0.03,0.81c-0.16,1.76-1.54,3.14-3.27,3.3c-1.79,0.17-3.36-0.85-3.82-2.6c-0.2-0.77-0.34-1.63-0.22-2.41
		c0.25-1.76-0.56-2.08-2.11-2.06c-5.49,0.08-10.98,0.03-16.48,0.04c-2.25,0-2.18,0.01-2.28,2.32c-0.05,1.1-0.23,2.3-0.74,3.24
		c-0.74,1.35-2.6,1.8-4.04,1.3c-1.56-0.53-2.44-1.8-2.52-3.62c-0.14-3.48-0.53-3.78-3.96-3.16c-1.59,0.29-2.64,1.28-2.69,2.83
		C16.6,25.01,16.68,28.54,16.68,32.34z"/>
	<g>
		<path d="M24.57,11.16c-0.58-1.95,0.25-2.53,2.47-1.74c2.21-0.86,3.03-0.33,2.46,1.61c-0.01,0.65,0.55,1.2,1.2,1.2
			c6.94,0,13.88,0,20.81,0c0.64,0,1.21-0.55,1.2-1.2c-0.51-1.83,0.32-2.33,2.5-1.52c2.24-0.86,3.07-0.31,2.49,1.65
			c-0.01,0.65,0.55,1.2,1.2,1.2c4.35-0.01,8.7,0.2,11.34,4.3c2.08,3.24,1.51,7.43,1.53,11.11c0.04,8.32,0.04,16.65,0.02,24.97
			c-0.02,7.19,2.06,18.74-7.4,20.76c-3.98,0.85-8.76,0.24-12.8,0.24c-4.16,0-8.32,0.01-12.48,0.01c-3.84,0-7.68,0-11.52-0.01
			c-4.09-0.01-9.4,0.82-12.98-1.61c-6.51-4.41-4.17-16.53-4.17-23.26c0-8.44-0.44-17.02-0.01-25.45
			c0.43-8.23,5.19-11.06,12.94-11.06c1.54,0,1.55-2.4,0-2.4c-4.8,0-9.8,0.56-12.87,4.72c-3.6,4.89-2.48,11.9-2.48,17.55
			c0,9.7-0.05,19.4,0.01,29.1c0.03,5.04,0.8,9.91,5.35,12.88c5.85,3.81,15.32,1.94,21.88,1.94c9.24,0.01,19.01,0.9,28.2-0.09
			c4.36-0.47,8.18-3.04,9.8-7.19c1.17-3,0.89-6.24,0.91-9.4c0.02-5.12,0.03-10.24,0.04-15.37c0-5.12-0.01-10.24-0.03-15.37
			c-0.02-3.9,0.54-8.3-1.16-11.95c-2.68-5.75-8.32-6.84-14.1-6.82c0.4,0.4,0.8,0.8,1.2,1.2c0.03-3.48-0.19-8.14-4.85-8.16
			c-4.61-0.01-4.97,4.55-4.94,8.03c0.4-0.4,0.8-0.8,1.2-1.2c-6.94,0-13.88,0-20.81,0c0.4,0.4,0.8,0.8,1.2,1.2
			c0.03-3.47-0.21-8-4.83-8.03c-4.74-0.04-4.93,4.64-4.9,8.16C22.18,12.7,24.58,12.71,24.57,11.16z"/>
		<path d="M15.44,39.76c0,5.44,0,10.87,0,16.31c0,3.05-1.1,8.16,0.86,10.88c1.5,2.09,4.26,1.81,6.52,1.83c5.78,0.06,11.55,0,17.33,0
			c5.46,0,10.91,0,16.37,0c2.53,0,6.9,0.81,8.98-1.31c2.16-2.21,1.31-6.44,1.31-9.17c0-6.16,0.23-12.39-0.1-18.55
			c-0.03-0.65-0.52-1.2-1.2-1.2c-16.29,0-32.58,0-48.86,0c-1.54,0-1.55,2.4,0,2.4c16.29,0,32.58,0,48.86,0c-0.4-0.4-0.8-0.8-1.2-1.2
			c0.21,3.86,0.1,7.74,0.1,11.6c0,1.99,0,3.97,0,5.96c0,1.44,0.45,4.6,0,5.96c-1.59,4.77-8.94,3.11-12.7,3.11c-3.85,0-7.7,0-11.55,0
			c-3.85,0-7.7,0-11.55,0c-1.85,0-3.97,0.32-5.78,0c-0.64,0-1.28,0-1.93,0c-2.46-0.99-3.48-2.6-3.05-4.81
			c-0.6-3.1,0-6.91-0.01-10.09c0-3.91,0-7.82,0-11.72C17.84,38.22,15.44,38.21,15.44,39.76z"/>
		<path d="M16.68,33.54c9.42,0,18.83,0,28.25,0c5.09,0,10.17-0.01,15.26,0.01c1.9,0.01,4.67,0.68,6.14-0.91
			c1.53-1.64,0.53-6.98,0.47-8.99c-0.06-1.93,0.08-3.8-1.53-5.13c-1.27-1.04-4.62-1.82-6.14-0.98c-1.56,0.85-0.88,1.47-1.44,2.78
			c0.05,0.38,0.05,0.77,0.01,1.15c-3.64,1.01-5.3,0.36-4.96-1.97c-0.3-0.33-0.32-1.08-0.72-1.48c-1.7-1.67-6.04-0.67-8.07-0.67
			c-3.51,0.01-9.09-1.11-12.39,0.06c-1.67,0.59-1.07,1-1.99,2.17c-0.06,0.43-0.09,0.86-0.08,1.29c-3.2,1.48-4.86,1.3-5.01-0.55
			c-0.38-0.52-0.17-1.47-0.65-2.06c-0.94-1.17-2.15-1.13-3.57-0.96c-7.11,0.83-4.78,9.96-4.77,15.03c0,1.54,2.4,1.55,2.4,0
			c-0.01-2.3-1.1-13.2,2.72-12.64c2.42,0.36,1.13,3.11,2.44,5.01c1.52,2.2,4.87,2.83,7,1.11c1.67-1.36,0.96-3.35,1.83-4.93
			c1.26-2.31,8.9-1.11,11.15-1.12c1.69,0,3.86-0.42,5.49-0.03c2.03,0.49,1.23,0.65,1.86,2.37c0.58,1.58,0.64,2.91,2.2,3.94
			c2.49,1.64,5.95,0.46,7.11-2.2c0.32-0.73,0.09-2.12,0.43-2.74c0.03-0.39,0.01-0.78-0.05-1.18c1.63-0.66,2.8-0.33,3.5,0.98
			c1.32,1.54,0.84,3.47,0.84,5.44c-0.01,0.9,0,1.79,0,2.69c0.34,2.05-0.42,2.75-2.3,2.12c-3.05,0.96-8.2-0.02-11.44-0.02
			c-3.81,0-7.63,0-11.44,0c-7.51,0-15.02,0-22.53,0C15.14,31.14,15.14,33.54,16.68,33.54z"/>
	</g>
</g>
</svg>
