<?xml version="1.0" encoding="utf-8"?>
<!-- Generator: Adobe Illustrator 24.0.1, SVG Export Plug-In . SVG Version: 6.00 Build 0)  -->
<svg version="1.1" id="Layer_1" xmlns="http://www.w3.org/2000/svg" xmlns:xlink="http://www.w3.org/1999/xlink" x="0px" y="0px"
	 viewBox="0 0 273.46 99.38" style="enable-background:new 0 0 273.46 99.38;" xml:space="preserve">
<style type="text/css">
	.st0{font-family:'ScriptMTBold';}
	.st1{font-size:104px;}
</style>
<path d="M-61.44-9.43v-42.04h-8.16v-8.53h8.16v-7.09c0-5.98,1.27-10.11,3.81-12.39c2.54-2.28,5.54-3.42,8.99-3.42
	c7.45,0,10.76,3.78,11.95,11.32l-7.58,1.32c-0.34-3.15-1.57-4.72-3.71-4.72c-1.46,0-2.46,0.5-3,1.49c-0.54,1-0.81,3.13-0.81,6.4
	v7.09h8.43v8.53h-8.43v42.04"/>
<path d="M38.97,69.57c0-7.58,2.5-13.8,7.52-18.66c5.01-4.86,11.12-7.29,18.33-7.29c7.08,0,13.15,2.4,18.23,7.19
	c5.08,4.79,7.62,11.04,7.62,18.76s-2.53,13.98-7.59,18.79c-5.06,4.81-11.15,7.21-18.26,7.21c-7.31,0-13.45-2.44-18.41-7.31
	C41.45,83.38,38.97,77.16,38.97,69.57z M49.18,69.55c0,4.85,1.51,8.83,4.54,11.93c3.03,3.1,6.73,4.65,11.1,4.65
	c4.43,0,8.15-1.57,11.15-4.7c3-3.13,4.49-7.09,4.49-11.88c0-4.82-1.52-8.79-4.57-11.9c-3.05-3.12-6.74-4.68-11.07-4.68
	c-4.54,0-8.28,1.59-11.22,4.78C50.65,60.93,49.18,64.86,49.18,69.55z"/>
<path d="M88.77,53.58v-8.58h6.4v-7.57l9.65-8.84v16.4h9.09v8.58h-9.09v23.87c0,3.83,0.21,6.19,0.63,7.08
	c0.42,0.9,1.48,1.35,3.17,1.35c1.79,0,3.1,0.81,4.83,0.13l-1,8c-2.47,0.88-3.53,1-6,1c-2.95,0-5.29-0.69-7.12-1.99
	s-2.98-2.94-3.45-4.9c-0.47-1.96-0.71-5.35-0.71-10.16V53.58H88.77z"/>
<path d="M110.97,68.57c0-7.58,2.5-13.8,7.52-18.66c5.01-4.86,11.12-7.29,18.33-7.29c7.08,0,13.15,2.4,18.23,7.19
	c5.08,4.79,7.62,11.04,7.62,18.76s-2.53,13.98-7.59,18.79c-5.06,4.81-11.15,7.21-18.26,7.21c-7.31,0-13.45-2.44-18.41-7.31
	C113.45,82.38,110.97,76.16,110.97,68.57z M121.18,68.55c0,4.85,1.51,8.83,4.54,11.93c3.03,3.1,6.73,4.65,11.1,4.65
	c4.43,0,8.15-1.57,11.15-4.7c3-3.13,4.49-7.09,4.49-11.88c0-4.82-1.52-8.79-4.57-11.9c-3.05-3.12-6.74-4.68-11.07-4.68
	c-4.54,0-8.28,1.59-11.22,4.78C122.65,59.93,121.18,63.86,121.18,68.55z"/>
<path d="M164.59,68.57c0-7.58,2.5-13.8,7.52-18.66c5.01-4.86,11.12-7.29,18.33-7.29c7.08,0,13.15,2.4,18.23,7.19
	c5.08,4.79,7.62,11.04,7.62,18.76s-2.53,13.98-7.59,18.79c-5.06,4.81-11.15,7.21-18.26,7.21c-7.31,0-13.45-2.44-18.41-7.31
	C167.07,82.38,164.59,76.16,164.59,68.57z M174.79,68.55c0,4.85,1.51,8.83,4.54,11.93c3.03,3.1,6.73,4.65,11.1,4.65
	c4.43,0,8.15-1.57,11.15-4.7c3-3.13,4.49-7.09,4.49-11.88c0-4.82-1.52-8.79-4.57-11.9c-3.05-3.12-6.74-4.68-11.07-4.68
	c-4.54,0-8.28,1.59-11.22,4.78C176.27,59.93,174.79,63.86,174.79,68.55z"/>
<path d="M263.46,53l-19.77,16.3l17.24,16.2c0.71,0.71,1.47,1.39,2.25,2.02l8.27,7.48h-14L257,95.15l-24.73-24.73v16.15h8.48v8.58
	h-26.96v-8.58h8.84V54.09h-8.84v-8.58h18.48v23.13L258.46,47 M236.27,65.64"/>
<path d="M-121.86,26.67v-53.47h-8.84v-8.58h18.48V8.74l18.38-14.68H-102v-7.97h27.17v7.97h-7.52L-100.78,9.4l17.32,17.27h8.63v8.58
	h-12.64l-24.73-24.73v16.15h8.48v8.58h-26.96v-8.58H-121.86z"/>
<g>
	<path d="M48.46,67.21c-3.52,3.96-7,7.02-10.45,9.17s-6.53,3.22-9.23,3.22c-1.29,0-3.04-0.49-5.28-1.47
		c-1.43,7.45-2.69,10.48-3.77,19.11c-3.52,0.47-7.76,1.2-12.71,2.19c1.08-9.28,2.96-16.31,5.64-31.1c-0.37-0.64-1.03-2.27-1.98-4.88
		L1.74,72l2-4l0.22-0.49c1.42-3.22,3.39-6.16,5.83-8.69l5.99-6.21c1.84-9.08,3.34-15.66,4.49-19.72c1.15-4.06,2.76-8.56,4.82-13.48
		c2.06-4.93,3.37-7.75,3.91-8.48c0.54-0.73,1.85-1.42,3.94-2.08s4.31-1.29,6.68-1.88c2.37-0.59,3.64-0.89,3.81-0.89
		c1.29,0,2.34,0.84,3.15,2.51s1.22,3.88,1.22,6.62c0,4.74-1.25,9.3-3.75,13.7s-7.23,9.81-14.18,16.23L25.6,66.35
		c1.66,3.55,4.14,5.32,7.45,5.32c4.73,0,9.87-3.44,15.41-10.31V67.21z M31.4,38.27c3.96-3.45,7.06-7.17,9.31-11.15
		c2.25-3.98,3.38-7.64,3.38-11c0-1.42-0.26-2.59-0.79-3.5s-1.17-1.37-1.95-1.37c-1.49,0-3,1.95-4.53,5.84
		C35.29,20.99,33.48,28.05,31.4,38.27z"/>
</g>
<text transform="matrix(1 0 0 1 125.9988 -22.6533)" class="st0 st1">t</text>
<path d="M242.46,95H106.43c-1.64,0-2.98-1.33-2.98-2.98V86h139V95z"/>
</svg>
