<?xml version="1.0" encoding="utf-8"?>
<!-- Generator: Adobe Illustrator 24.0.1, SVG Export Plug-In . SVG Version: 6.00 Build 0)  -->
<svg version="1.1" id="Layer_1" xmlns="http://www.w3.org/2000/svg" xmlns:xlink="http://www.w3.org/1999/xlink" x="0px" y="0px"
	 viewBox="0 0 65.46 18.38" style="enable-background:new 0 0 65.46 18.38;" xml:space="preserve">
<g>
	<path d="M12.15,9.01v4.7c0,0.2,0.02,0.37,0.06,0.49c0.04,0.12,0.12,0.21,0.23,0.27c0.11,0.06,0.27,0.1,0.48,0.13
		c0.21,0.02,0.48,0.04,0.82,0.05l-0.04,0.48c-0.13,0-0.29,0-0.46-0.01c-0.18,0-0.37-0.01-0.57-0.01c-0.2,0-0.43,0-0.69-0.01
		c-0.26,0-0.48-0.01-0.68-0.01c-0.41,0-0.77,0-1.09,0.01c-0.32,0.01-0.59,0.01-0.82,0.01l-0.04-0.42c0.27-0.02,0.48-0.06,0.64-0.1
		c0.16-0.04,0.28-0.12,0.37-0.23c0.08-0.11,0.14-0.25,0.17-0.43c0.03-0.18,0.04-0.43,0.04-0.74v-4.2H9.43L9.35,8.92l0.05-0.49
		l1.2-0.1V7.17c0-0.76,0.11-1.43,0.33-2c0.22-0.57,0.52-1.05,0.92-1.44c0.34-0.34,0.72-0.59,1.15-0.76c0.42-0.16,0.92-0.24,1.5-0.24
		c0.26,0,0.47,0.01,0.63,0.04c0.16,0.02,0.31,0.07,0.45,0.13c0.14,0.06,0.26,0.15,0.35,0.26c0.1,0.11,0.15,0.25,0.15,0.41
		c0,0.29-0.07,0.5-0.2,0.61c-0.13,0.11-0.36,0.23-0.67,0.34c-0.2-0.21-0.45-0.39-0.74-0.53c-0.29-0.14-0.59-0.21-0.88-0.21
		c-0.16,0-0.32,0.03-0.47,0.08c-0.15,0.05-0.28,0.14-0.4,0.25c-0.14,0.14-0.24,0.31-0.32,0.51c-0.07,0.2-0.13,0.42-0.17,0.66
		C12.18,5.5,12.16,5.75,12.16,6c0,0.26-0.01,0.5-0.01,0.74v1.57l2.01-0.04l0.1,0.09l-0.04,0.65H12.15z"/>
	<path d="M14.68,11.72c0-0.52,0.1-1.01,0.29-1.48c0.19-0.46,0.45-0.87,0.78-1.21c0.33-0.34,0.72-0.61,1.17-0.81
		c0.45-0.2,0.96-0.3,1.53-0.3c0.61,0,1.11,0.1,1.51,0.29c0.4,0.19,0.79,0.45,1.17,0.78c0.38,0.33,0.66,0.72,0.83,1.16
		c0.18,0.44,0.26,0.92,0.26,1.42c0,0.53-0.1,1.02-0.29,1.48c-0.19,0.46-0.45,0.86-0.78,1.2c-0.33,0.34-0.72,0.61-1.17,0.81
		c-0.45,0.2-0.96,0.3-1.53,0.3c-0.61,0-1.14-0.1-1.59-0.29c-0.45-0.19-0.84-0.45-1.16-0.78c-0.32-0.33-0.57-0.72-0.75-1.16
		C14.77,12.7,14.68,12.23,14.68,11.72z M18.6,14.75c0.24,0,0.49-0.08,0.75-0.24c0.26-0.16,0.47-0.38,0.63-0.65
		c0.17-0.27,0.29-0.57,0.37-0.9c0.08-0.33,0.12-0.67,0.12-1c0-0.39-0.04-0.79-0.13-1.2c-0.08-0.41-0.22-0.78-0.41-1.1
		c-0.19-0.33-0.43-0.6-0.73-0.8c-0.3-0.2-0.6-0.31-0.91-0.31c-0.25,0-0.51,0.08-0.76,0.24c-0.26,0.16-0.47,0.37-0.63,0.64
		c-0.16,0.27-0.28,0.57-0.36,0.9c-0.08,0.33-0.12,0.67-0.12,1c0,0.37,0.04,0.77,0.13,1.17c0.09,0.41,0.23,0.78,0.42,1.11
		c0.19,0.33,0.43,0.61,0.73,0.82C18,14.64,18.3,14.75,18.6,14.75z"/>
	<path d="M25.74,5.58c-0.02,0.21-0.03,0.45-0.04,0.7c-0.01,0.26-0.02,0.51-0.03,0.77c-0.01,0.26-0.01,0.5-0.02,0.72
		c0,0.22-0.01,0.4-0.01,0.54l1.95-0.04l0.1,0.09l-0.04,0.67h-2.01v3.83c0,0.32,0.02,0.57,0.06,0.77c0.04,0.2,0.12,0.36,0.23,0.49
		c0.11,0.13,0.24,0.22,0.38,0.26c0.14,0.04,0.29,0.07,0.46,0.07c0.18,0,0.36-0.02,0.53-0.06c0.18-0.04,0.36-0.07,0.54-0.12
		l0.09,0.48c-0.32,0.15-0.66,0.29-1.03,0.4c-0.37,0.11-0.72,0.17-1.06,0.17c-0.32,0-0.58-0.03-0.77-0.09
		c-0.2-0.06-0.38-0.16-0.53-0.31c-0.15-0.15-0.27-0.34-0.36-0.58c-0.08-0.24-0.13-0.54-0.13-0.89v-0.33c0-0.15,0-0.38,0.01-0.71
		c0-0.33,0.01-0.76,0.01-1.31V9.03h-1.1l-0.09-0.09l0.05-0.52l1.14-0.09V7.33c0-0.2,0-0.41-0.01-0.62c0-0.21-0.01-0.4-0.01-0.57
		c0.12-0.05,0.27-0.1,0.44-0.16c0.17-0.06,0.34-0.12,0.51-0.18c0.17-0.06,0.3-0.12,0.39-0.16c0.09-0.04,0.16-0.08,0.21-0.12
		L25.74,5.58z"/>
	<path d="M28.66,11.72c0-0.52,0.1-1.01,0.29-1.48c0.19-0.46,0.45-0.87,0.78-1.21c0.33-0.34,0.72-0.61,1.17-0.81
		c0.45-0.2,0.96-0.3,1.53-0.3c0.61,0,1.11,0.1,1.51,0.29c0.4,0.19,0.79,0.45,1.17,0.78c0.38,0.33,0.66,0.72,0.83,1.16
		c0.18,0.44,0.26,0.92,0.26,1.42c0,0.53-0.1,1.02-0.29,1.48c-0.19,0.46-0.45,0.86-0.78,1.2c-0.33,0.34-0.72,0.61-1.17,0.81
		c-0.45,0.2-0.96,0.3-1.53,0.3c-0.61,0-1.14-0.1-1.59-0.29c-0.45-0.19-0.84-0.45-1.16-0.78c-0.32-0.33-0.57-0.72-0.75-1.16
		C28.74,12.7,28.66,12.23,28.66,11.72z M32.58,14.75c0.24,0,0.49-0.08,0.75-0.24c0.26-0.16,0.47-0.38,0.63-0.65
		c0.17-0.27,0.29-0.57,0.37-0.9c0.08-0.33,0.12-0.67,0.12-1c0-0.39-0.04-0.79-0.13-1.2c-0.08-0.41-0.22-0.78-0.41-1.1
		c-0.19-0.33-0.43-0.6-0.73-0.8c-0.3-0.2-0.6-0.31-0.91-0.31c-0.25,0-0.51,0.08-0.76,0.24c-0.26,0.16-0.47,0.37-0.63,0.64
		c-0.16,0.27-0.28,0.57-0.36,0.9c-0.08,0.33-0.12,0.67-0.12,1c0,0.37,0.04,0.77,0.13,1.17c0.09,0.41,0.23,0.78,0.42,1.11
		c0.19,0.33,0.43,0.61,0.73,0.82C31.98,14.64,32.27,14.75,32.58,14.75z"/>
	<path d="M37.34,11.72c0-0.52,0.1-1.01,0.29-1.48c0.19-0.46,0.45-0.87,0.78-1.21c0.33-0.34,0.72-0.61,1.17-0.81
		c0.45-0.2,0.96-0.3,1.53-0.3c0.61,0,1.11,0.1,1.51,0.29c0.4,0.19,0.79,0.45,1.17,0.78c0.38,0.33,0.66,0.72,0.83,1.16
		c0.18,0.44,0.26,0.92,0.26,1.42c0,0.53-0.1,1.02-0.29,1.48c-0.19,0.46-0.45,0.86-0.78,1.2c-0.33,0.34-0.72,0.61-1.17,0.81
		c-0.45,0.2-0.96,0.3-1.53,0.3c-0.61,0-1.14-0.1-1.59-0.29c-0.45-0.19-0.84-0.45-1.16-0.78c-0.32-0.33-0.57-0.72-0.75-1.16
		C37.42,12.7,37.34,12.23,37.34,11.72z M41.25,14.75c0.24,0,0.49-0.08,0.75-0.24c0.26-0.16,0.47-0.38,0.63-0.65
		c0.17-0.27,0.29-0.57,0.37-0.9c0.08-0.33,0.12-0.67,0.12-1c0-0.39-0.04-0.79-0.13-1.2c-0.08-0.41-0.22-0.78-0.41-1.1
		c-0.19-0.33-0.43-0.6-0.73-0.8c-0.3-0.2-0.6-0.31-0.91-0.31c-0.25,0-0.51,0.08-0.76,0.24c-0.26,0.16-0.47,0.37-0.63,0.64
		c-0.16,0.27-0.28,0.57-0.36,0.9c-0.08,0.33-0.12,0.67-0.12,1c0,0.37,0.04,0.77,0.13,1.17c0.09,0.41,0.23,0.78,0.42,1.11
		c0.19,0.33,0.43,0.61,0.73,0.82C40.65,14.64,40.95,14.75,41.25,14.75z"/>
	<path d="M48.7,11.55c-0.11,0-0.16,0.03-0.16,0.1v2.06c0,0.2,0.01,0.35,0.03,0.47c0.02,0.12,0.07,0.21,0.15,0.27
		c0.08,0.07,0.19,0.11,0.35,0.13c0.15,0.02,0.37,0.04,0.65,0.06l-0.02,0.48c-0.26,0-0.55,0-0.87-0.01
		c-0.32-0.01-0.73-0.01-1.23-0.01c-0.37,0-0.73,0-1.06,0.01c-0.33,0.01-0.61,0.01-0.84,0.01l-0.02-0.42
		c0.28-0.02,0.51-0.06,0.69-0.1c0.17-0.04,0.31-0.12,0.4-0.23c0.09-0.11,0.15-0.25,0.18-0.43c0.03-0.18,0.04-0.43,0.04-0.74V4.87
		c0-0.24-0.01-0.42-0.04-0.56c-0.02-0.13-0.08-0.24-0.17-0.31c-0.08-0.07-0.21-0.13-0.37-0.17c-0.16-0.04-0.38-0.09-0.66-0.13
		l-0.05-0.38c0.24-0.04,0.48-0.09,0.74-0.14c0.26-0.05,0.52-0.11,0.78-0.17c0.26-0.06,0.53-0.12,0.78-0.18
		c0.26-0.06,0.45-0.12,0.57-0.16l0.13,0.1c-0.03,0.21-0.06,0.45-0.09,0.73c-0.02,0.27-0.04,0.55-0.06,0.82
		c-0.01,0.28-0.02,0.54-0.02,0.78c0,0.24-0.01,0.44-0.01,0.59v5.29c0,0.05,0.02,0.08,0.05,0.1c0.03,0.02,0.09,0.02,0.17,0.02
		c0.13,0,0.28-0.05,0.44-0.16c0.16-0.11,0.36-0.28,0.6-0.54l0.65-0.7c0.2-0.22,0.35-0.38,0.43-0.49c0.08-0.11,0.13-0.2,0.13-0.27
		c0-0.11-0.07-0.19-0.21-0.24c-0.14-0.05-0.33-0.09-0.56-0.12l0.04-0.39h0.23c0.11,0,0.21,0,0.32,0.01c0.11,0,0.21,0.01,0.31,0.01
		h0.7c0.23,0,0.48,0,0.77-0.01c0.28,0,0.64-0.02,1.06-0.04l0.04,0.44c-0.17,0.02-0.32,0.05-0.46,0.07
		c-0.13,0.02-0.27,0.05-0.42,0.09c-0.14,0.04-0.29,0.1-0.45,0.17C52.23,9,52.07,9.1,51.91,9.23c-0.35,0.27-0.66,0.54-0.93,0.82
		c-0.27,0.28-0.46,0.48-0.56,0.6c-0.1,0.1-0.15,0.17-0.15,0.22c0,0.06,0.03,0.11,0.09,0.17l1.7,2.04c0.29,0.34,0.53,0.61,0.71,0.82
		c0.18,0.2,0.35,0.36,0.5,0.46c0.15,0.11,0.31,0.18,0.48,0.21c0.17,0.04,0.39,0.06,0.66,0.08l-0.02,0.48c-0.22,0-0.53,0-0.94-0.01
		c-0.41-0.01-0.82-0.01-1.23-0.01c-0.37,0-0.7,0-0.96,0.01c-0.27,0.01-0.52,0.01-0.76,0.01l-0.02-0.42c0.2-0.02,0.38-0.05,0.52-0.08
		c0.14-0.03,0.21-0.1,0.21-0.21c0-0.06-0.02-0.13-0.06-0.18c-0.04-0.06-0.11-0.14-0.2-0.24l-1.9-2.21c-0.05-0.06-0.1-0.12-0.15-0.17
		C48.84,11.57,48.77,11.55,48.7,11.55z"/>
</g>
</svg>
