<?xml version="1.0" encoding="utf-8"?>
<!-- Generator: Adobe Illustrator 24.0.1, SVG Export Plug-In . SVG Version: 6.00 Build 0)  -->
<svg version="1.1" id="Layer_1" xmlns="http://www.w3.org/2000/svg" xmlns:xlink="http://www.w3.org/1999/xlink" x="0px" y="0px"
	 viewBox="0 0 65 41" style="enable-background:new 0 0 65 41;" xml:space="preserve">
<path d="M10.69,10.5H8.49c-2.5,0-4.52,2.03-4.52,4.52v18.95c0,2.5,2.03,4.52,4.52,4.52h8.48c-4-3-6-8.55-6-14S10.96,21.5,10.69,10.5
	z"/>
<path d="M57.44,10.5h-8.21c3.54,3.61,5.73,8.55,5.73,14s-2.19,10.39-5.73,14h8.21c2.5,0,4.52-2.03,4.52-4.52V15.03
	C61.96,12.53,59.94,10.5,57.44,10.5z"/>
<path d="M17.19,29.5h4.77v-4.31V13.12v-2.31V6.42c0-2.01-1.89-1.92-4.23-1.92h-0.54c-2.34,0-4.23-0.09-4.23,1.92v19.43
	c0,0.22,0.03,0.44,0.08,0.65C13.4,28.21,15.12,29.5,17.19,29.5z"/>
<path d="M47.23,10.5c-3.63-3.7-8.68-6-14.27-6c-4.07,0-5.84,0.23-9,2.32v3.68v7.69c1.99-2.83,5.28-4.69,9-4.69c6.08,0,11,4.92,11,11
	s-4.92,11-11,11c-5.74,0-10.44-4.39-10.95-10h-0.05h-6h-2.95c0.25,5.05,2.36,9.62,5.68,13h28.54c3.54-3.61,5.73-8.55,5.73-14
	S50.77,14.11,47.23,10.5z"/>
</svg>
