<?xml version="1.0" encoding="utf-8"?>
<!-- Generator: Adobe Illustrator 24.0.1, SVG Export Plug-In . SVG Version: 6.00 Build 0)  -->
<svg version="1.1" id="Layer_1" xmlns="http://www.w3.org/2000/svg" xmlns:xlink="http://www.w3.org/1999/xlink" x="0px" y="0px"
	 viewBox="0 0 80 80" style="enable-background:new 0 0 80 80;" xml:space="preserve">
<style type="text/css">
	.st0{fill:none;stroke:#000000;stroke-width:15;stroke-miterlimit:10;}
</style>
<g>
	<path d="M73.01,33.78c-0.23,1.31-0.39,2.64-0.71,3.93c-0.83,3.41-2.5,6.43-4.59,9.23c-3.22,4.31-7.13,7.96-11.17,11.47
		c-4.76,4.14-9.55,8.25-14.33,12.37c-1.84,1.58-3.81,1.65-5.58,0.11c-6.22-5.4-12.46-10.78-18.61-16.26c-3.16-2.82-6-5.96-8.32-9.54
		c-4.15-6.41-5.28-13.28-2.65-20.5c2.38-6.53,7-10.8,13.93-12.14c7.19-1.39,12.97,1.19,17.57,6.72c0.22,0.27,0.43,0.55,0.65,0.83
		c0.03,0.03,0.07,0.06,0.17,0.14c0.25-0.32,0.49-0.64,0.75-0.95c2.66-3.26,5.91-5.65,10.07-6.63c7.24-1.72,14.93,1.31,19.12,7.46
		c2.07,3.04,3.21,6.39,3.58,10.03c0.02,0.23,0.08,0.47,0.12,0.7C73.01,31.76,73.01,32.77,73.01,33.78z M39.32,68.02
		c0.17-0.14,0.31-0.24,0.44-0.35c5.32-4.6,10.67-9.16,15.95-13.81c3.68-3.25,7.19-6.69,9.92-10.82c2.6-3.93,3.88-8.21,3.29-12.95
		c-0.64-5.11-2.83-9.36-7.37-12.03c-4.23-2.49-8.7-2.79-13.19-0.64c-2.66,1.28-4.62,3.36-6.26,5.76c-0.23,0.34-0.44,0.7-0.69,1.04
		c-1.08,1.48-3.01,1.48-4.11,0.01c-0.96-1.28-1.84-2.63-2.93-3.78c-3.53-3.72-7.88-5.17-12.9-4.08c-5.41,1.17-8.97,4.6-10.77,9.76
		c-2.09,6-1.1,11.64,2.36,16.9c2.14,3.26,4.77,6.12,7.66,8.72c4.77,4.29,9.64,8.48,14.47,12.7C36.55,65.65,37.93,66.82,39.32,68.02z
		"/>
	<g>
		<path d="M70.11,32.98C68.11,45.1,58.98,52.35,50.13,60c-2.15,1.86-4.3,3.71-6.45,5.56c-1.82,1.56-3.76,2.73-6.36,1.95
			c-1.2-0.36-2.67-2.31-3.59-3.11c-4.74-4.11-9.56-8.17-14.17-12.44c-8.42-7.8-15.17-19.76-7.53-30.59
			c3.01-4.26,8.21-6.54,13.38-6.28c5.68,0.28,7.93,3.9,11.84,7.17c1.13,0.94,3.17,1.36,4.24,0c4.67-5.94,11.56-9.08,18.89-5.86
			c7.02,3.08,9.62,10.17,9.62,17.37c0,3.86,6,3.87,6,0c0-9.59-4.07-18.88-13.29-22.9c-9.39-4.1-19.32-0.66-25.47,7.15
			c1.41,0,2.83,0,4.24,0c-2.4-2.01-4.03-4.53-6.82-6.19c-2.4-1.43-5.1-2.33-7.87-2.62c-6.11-0.64-12.6,1.42-17.07,5.66
			C-0.94,25.02,1.89,40.74,10.4,51.06c5.66,6.87,13.11,12.41,19.8,18.21c2.45,2.13,4.99,5.24,8.4,5.62
			c3.01,0.33,5.02-1.41,7.17-3.23c12.04-10.17,27.39-20.5,30.13-37.08C76.52,30.8,70.74,29.18,70.11,32.98z"/>
		<path d="M41.45,70.14c6.27-4.94,12.36-10.39,18.21-15.81c4.62-4.27,9.16-9.22,11.26-15.26c3.88-11.15-2.61-24.78-15.04-25.98
			c-6.46-0.63-11.13,2.63-15.29,7.1c-1.67,1.79-1.08,1.63-2.6-0.05c-0.87-0.96-1.61-1.99-2.58-2.87c-2.1-1.9-4.68-3.3-7.45-3.91
			C16.35,10.8,6.99,20.7,6.63,31.74c-0.24,7.5,4,14,8.98,19.24c6.58,6.92,14.35,12.96,21.59,19.16c2.92,2.5,7.18-1.73,4.24-4.24
			c-6.01-5.15-12.02-10.32-17.9-15.63c-5.29-4.78-11.22-10.85-10.92-18.53c0.28-7.17,5.96-14.05,13.73-12.59
			c4.17,0.78,5.74,3.74,8.34,6.59c1.3,1.43,2.59,2.58,4.65,2.59c1.97,0.01,3.44-1.18,4.64-2.6c2.5-2.95,4.4-5.78,8.52-6.58
			c8.32-1.62,13.96,6.6,13.53,14.03c-0.41,7.22-6.22,12.89-11.23,17.47c-5.69,5.2-11.55,10.48-17.61,15.25
			C34.17,68.28,38.44,72.5,41.45,70.14z"/>
	</g>
</g>
</svg>
