<?xml version="1.0" encoding="utf-8"?>
<!-- Generator: Adobe Illustrator 24.0.1, SVG Export Plug-In . SVG Version: 6.00 Build 0)  -->
<svg version="1.1" id="Layer_1" xmlns="http://www.w3.org/2000/svg" xmlns:xlink="http://www.w3.org/1999/xlink" x="0px" y="0px"
	 viewBox="0 0 80 80" style="enable-background:new 0 0 80 80;" xml:space="preserve">
<style type="text/css">
	.st0{fill:none;stroke:#000000;stroke-width:15;stroke-miterlimit:10;}
</style>
<path d="M8.6,51.88c0-5.23,0.03-10.45-0.01-15.68c-0.02-2.31,0.81-4.16,2.48-5.73C19,23.05,26.92,15.6,34.84,8.17
	c2.95-2.77,6.53-2.79,9.49-0.02c7.92,7.43,15.83,14.88,23.76,22.31c1.74,1.63,2.59,3.54,2.58,5.96
	c-0.04,10.51-0.01,21.02-0.02,31.53c0,3.39-2.07,6.12-5.17,6.85c-0.57,0.13-1.17,0.15-1.76,0.15c-4.1,0.01-8.21-0.09-12.31,0.03
	c-3.79,0.12-7.01-3.04-6.99-7.01c0.02-4.22,0.01-8.44,0-12.67c0-3.26-1.81-5.36-4.67-5.41c-3.15-0.05-5.75,2.35-5.79,5.46
	c-0.05,4.25,0,8.5-0.03,12.75c-0.02,3.24-2.15,5.96-5.18,6.68c-0.6,0.14-1.23,0.17-1.84,0.17c-3.75,0.01-7.5-0.08-11.25,0.03
	c-4.41,0.12-7.15-3.62-7.09-7.09C8.67,62.57,8.6,57.22,8.6,51.88z M14.7,51.94c0,5.2,0,10.39,0,15.59c0,1.25,0.11,1.35,1.37,1.35
	c3.45,0,6.91,0,10.36,0c1.31,0,1.38-0.07,1.38-1.42c0-3.93-0.03-7.85,0.01-11.78c0.08-7.29,6.17-12.65,13.35-11.79
	c5.29,0.64,9.35,5.35,9.39,10.96c0.03,4.28,0,8.56,0.01,12.84c0,1.05,0.14,1.18,1.16,1.18c3.78,0,7.56,0,11.34,0
	c1.42,0,1.48-0.06,1.48-1.51c0-10.22-0.01-20.43,0.02-30.65c0-0.85-0.26-1.42-0.87-1.99c-7.81-7.3-15.6-14.62-23.37-21.95
	c-0.6-0.57-0.95-0.52-1.52,0.02c-7.84,7.39-15.71,14.76-23.53,22.16c-0.35,0.33-0.55,0.97-0.56,1.47
	C14.69,41.6,14.7,46.77,14.7,51.94z"/>
</svg>
