<?xml version="1.0" encoding="utf-8"?>
<!-- Generator: Adobe Illustrator 24.0.1, SVG Export Plug-In . SVG Version: 6.00 Build 0)  -->
<svg version="1.1" id="Layer_1" xmlns="http://www.w3.org/2000/svg" xmlns:xlink="http://www.w3.org/1999/xlink" x="0px" y="0px"
	 viewBox="0 0 80 80" style="enable-background:new 0 0 80 80;" xml:space="preserve">
<style type="text/css">
	.st0{fill:none;stroke:#000000;stroke-width:15;stroke-miterlimit:10;}
</style>
<g>
	<path d="M74.03,68.39c-0.06,0.12-0.13,0.23-0.17,0.35c-0.51,1.38-1.64,2.21-3.12,2.24c-1.23,0.03-2.46,0.01-3.69,0.01
		c-12.42,0-24.85,0-37.27,0c-2.65,0-3.89-1.24-3.89-3.89c0-4.13-0.01-8.25,0.01-12.38c0.01-2.37,2.08-3.94,4.26-3.27
		c1.39,0.43,2.29,1.69,2.3,3.29c0.01,2.94,0,5.88,0,8.82c0,0.25,0,0.5,0,0.81c11.65,0,23.29,0,34.97,0c0-15.26,0-30.54,0-45.87
		c-11.63,0-23.27,0-34.97,0c0,0.61,0,1.19,0,1.78c0,2.67,0.02,5.33-0.01,8c-0.01,1.5-0.94,2.73-2.29,3.15
		c-1.34,0.41-2.81,0.01-3.57-1.18c-0.39-0.62-0.66-1.43-0.67-2.16c-0.06-4.22-0.04-8.43-0.03-12.65c0-2.18,1.36-3.54,3.55-3.54
		c5.77-0.01,11.53,0,17.3,0c7.68,0,15.36,0.04,23.04-0.03c2.06-0.02,3.54,0.61,4.25,2.62C74.03,32.46,74.03,50.43,74.03,68.39z"/>
	<path d="M4,40.76c0.33-0.97,1-1.7,1.72-2.41c2.98-2.95,5.93-5.93,8.91-8.89c1.35-1.34,3.09-1.52,4.45-0.5
		c1.63,1.23,1.8,3.43,0.34,4.97c-1.18,1.24-2.41,2.42-3.62,3.64c-0.16,0.16-0.3,0.32-0.55,0.59c0.37,0,0.61,0,0.85,0
		c12.24,0,24.48,0.01,36.72-0.01c1.32,0,2.43,0.38,3.17,1.52c1.34,2.06,0.03,4.77-2.42,5.03c-0.32,0.03-0.64,0.03-0.96,0.03
		c-12.15,0-24.3,0-36.45,0c-0.25,0-0.5,0-0.92,0c0.23,0.24,0.37,0.4,0.51,0.54c1.28,1.3,2.63,2.54,3.83,3.9
		c1.69,1.9,0.67,4.8-1.81,5.33c-0.99,0.21-1.91-0.01-2.69-0.67c-0.55-0.47-1.06-1-1.57-1.52c-2.6-2.59-5.18-5.2-7.79-7.78
		C5,43.83,4.34,43.1,4,42.13C4,41.67,4,41.22,4,40.76z"/>
</g>
</svg>
