<?xml version="1.0" encoding="utf-8"?>
<!-- Generator: Adobe Illustrator 24.0.1, SVG Export Plug-In . SVG Version: 6.00 Build 0)  -->
<svg version="1.1" id="Layer_1" xmlns="http://www.w3.org/2000/svg" xmlns:xlink="http://www.w3.org/1999/xlink" x="0px" y="0px"
	 viewBox="0 0 80 80" style="enable-background:new 0 0 80 80;" xml:space="preserve">
<style type="text/css">
	.st0{fill:none;stroke:#000000;stroke-width:15;stroke-miterlimit:10;}
</style>
<g>
	<path d="M45.47,5.3c1.1,0.13,2.19,0.35,3.26,0.61C72.66,11.8,82.8,39.6,68.28,59.54c-0.32,0.44-0.39,0.79-0.16,1.29
		c0.88,2,1.75,4,2.57,6.03c0.74,1.81,0.51,3.55-0.7,5.08c-1.23,1.55-2.88,2.22-4.85,1.88c-4.04-0.68-8.08-1.41-12.13-2.08
		c-0.59-0.1-1.26-0.08-1.83,0.09c-5.28,1.62-10.62,2-16.07,1.09C16.5,69.8,3.79,51.94,6.99,33.35C9.8,17.05,24.1,5,40.73,4.87
		C42.31,5.01,43.89,5.1,45.47,5.3z M62.75,61.23c-0.61-1.37-0.43-2.46,0.53-3.63c14.17-17.28,4.37-43.34-17.7-47.15
		c-15.97-2.76-31.36,8.4-33.62,24.37C9.71,50.8,20.24,65.24,36.18,67.98c4.32,0.74,8.63,0.51,12.78-0.88
		c1.97-0.66,3.81-0.68,5.79-0.29c3.55,0.7,7.13,1.29,10.69,1.92c0.11,0.02,0.23,0.01,0.51,0.02C64.86,66.18,63.85,63.68,62.75,61.23
		z"/>
	<g>
		<path d="M44.99,7.03C57.65,9.02,68.3,17.68,71.91,30.14c1.72,5.95,1.71,12.3-0.06,18.24c-0.85,2.85-2.09,5.56-3.66,8.09
			c-1.25,2-2.17,2.78-1.72,5.06c0.34,1.69,2.77,4.17,2.48,5.81c-0.23,1.32-4.94,4.22-5.94,4.31c-0.76,0.06-1.84-0.32-2.6-0.45
			c-2.96-0.51-6.25-1.57-9.27-1.17c-4.87,0.64-8.98,1.91-14,1.34c-3.81-0.43-7.49-1.49-10.91-3.22
			c-12.93-6.54-20.3-21.47-17.24-35.7C12.66,15.41,28.66,5.35,45.47,7.1c2.3,0.24,2.29-3.36,0-3.6
			c-16.41-1.71-32.2,7.02-38.33,22.67C1.35,40.94,6.4,58.19,18.95,67.79c6.65,5.09,14.98,7.73,23.36,7.4c2.64-0.1,5-0.74,7.58-1.11
			c2.73-0.4,5.09-0.18,7.84,0.3c3.74,0.65,8.7,2.55,12.17,0.13c2.16-1.51,3.32-4.17,2.9-6.77c-0.32-1.99-1.61-3.64-2.14-5.55
			c-0.5-1.81-0.73-0.97-0.07-2.8c0.41-1.13,1.42-2.24,1.98-3.31c3.25-6.16,4.71-13.19,4.07-20.13C75.1,19.38,62.3,6.13,45.95,3.56
			C43.68,3.2,42.7,6.67,44.99,7.03z"/>
		<path d="M64.49,60.75c-0.61-2.28,3.63-7.03,4.55-9.07c1.14-2.54,1.92-5.2,2.32-7.96c0.81-5.49,0.09-11.14-2.02-16.27
			c-4.3-10.41-13.97-17.7-25.17-19c-12.92-1.5-25.88,5.75-31.41,17.52c-5.38,11.45-3.04,25.55,5.72,34.67
			c5.03,5.24,11.87,8.49,19.07,9.34c5.17,0.61,9.32-1.32,14.3-1.62c4.68-0.27,9.43,1.97,14.1,2.19c1.06,0.05,2.18-1.21,1.74-2.28
			c-1.11-2.65-2.21-5.31-3.37-7.95c-0.93-2.12-4.03-0.29-3.11,1.82c1.03,2.35,2.02,4.72,3.01,7.09c0.58-0.76,1.16-1.52,1.74-2.28
			c-4.26-0.2-8.41-1.95-12.66-2.16c-4.58-0.22-8.74,1.96-13.41,1.78c-8.23-0.32-16.17-4.49-21.07-11.11
			c-9.82-13.28-5.4-32.67,9.13-40.41c13.35-7.12,30.32-1.68,37.16,11.75c2.88,5.65,3.76,12.29,2.33,18.48
			c-0.78,3.37-2.21,6.55-4.17,9.39c-1.74,2.51-3.08,3.93-2.24,7.05C61.62,63.94,65.09,62.99,64.49,60.75z"/>
	</g>
</g>
</svg>
