<?xml version="1.0" encoding="utf-8"?>
<!-- Generator: Adobe Illustrator 24.0.1, SVG Export Plug-In . SVG Version: 6.00 Build 0)  -->
<svg version="1.1" id="Layer_1" xmlns="http://www.w3.org/2000/svg" xmlns:xlink="http://www.w3.org/1999/xlink" x="0px" y="0px"
	 viewBox="0 0 80 80" style="enable-background:new 0 0 80 80;" xml:space="preserve">
<style type="text/css">
	.st0{fill:none;stroke:#000000;stroke-width:15;stroke-miterlimit:10;}
</style>
<g>
	<path d="M40.13,51c-5.06,0-9.2-4.14-9.17-9.2c0.03-5.05,4.12-9.13,9.16-9.13c5.07,0,9.2,4.14,9.17,9.2
		C49.26,46.92,45.17,50.99,40.13,51z"/>
	<path d="M16.3,51c-5.05,0-9.18-4.13-9.17-9.19c0.01-5.05,4.16-9.18,9.2-9.15c5.05,0.03,9.12,4.11,9.13,9.15
		C25.47,46.88,21.36,51,16.3,51z"/>
	<path d="M63.93,51c-5.06-0.01-9.16-4.13-9.15-9.2c0.01-5.05,4.17-9.18,9.21-9.14c5.07,0.04,9.15,4.17,9.12,9.24
		C73.09,46.91,68.95,51.01,63.93,51z"/>
</g>
</svg>
