<?xml version="1.0" encoding="utf-8"?>
<!-- Generator: Adobe Illustrator 24.0.1, SVG Export Plug-In . SVG Version: 6.00 Build 0)  -->
<svg version="1.1" id="Layer_1" xmlns="http://www.w3.org/2000/svg" xmlns:xlink="http://www.w3.org/1999/xlink" x="0px" y="0px"
	 viewBox="0 0 80 80" style="enable-background:new 0 0 80 80;" xml:space="preserve">
<style type="text/css">
	.st0{fill:none;stroke:#000000;stroke-width:15;stroke-miterlimit:10;}
</style>
<g>
	<path d="M39.4,62.2c-7.34,0-14.68-0.08-22.01,0.02C11.03,62.32,6.23,56.69,7.1,50.29c0.44-3.27,1.89-6,4.23-8.3
		c1.26-1.24,2.49-2.51,3.67-3.83c1.14-1.28,1.65-2.77,1.65-4.54c0-3.28-0.08-6.59,0.37-9.82c1.03-7.29,4.56-13.07,11.27-16.57
		c4.37-2.28,9.09-2.79,13.93-2.35c4.14,0.38,7.96,1.67,11.29,4.21c4.56,3.47,7.05,8.18,8.16,13.71c0.68,3.39,0.62,6.82,0.47,10.23
		c-0.11,2.47,0.8,4.36,2.41,6.04c1.07,1.11,2.21,2.16,3.26,3.29c3.22,3.43,4.69,7.43,3.63,12.11c-1.04,4.6-5.06,7.73-9.78,7.74
		C54.24,62.21,46.82,62.2,39.4,62.2z M39.33,55c7.34,0,14.68,0,22.01,0c2.1,0,3.27-1.23,3.22-3.32c-0.05-1.85-0.88-3.32-2.17-4.59
		c-1.14-1.12-2.29-2.24-3.37-3.42c-2.7-2.95-4.24-6.32-4.08-10.44c0.11-2.71,0.09-5.46-0.24-8.15c-0.59-4.82-2.64-8.96-7.14-11.26
		c-5.29-2.7-10.82-2.72-16.15-0.1c-4.61,2.26-6.73,6.43-7.32,11.31c-0.35,2.88-0.29,5.82-0.26,8.74c0.03,3.05-0.8,5.79-2.68,8.14
		c-1.45,1.81-3.1,3.47-4.72,5.14c-1,1.03-1.79,2.15-2.1,3.57c-0.54,2.54,0.68,4.46,3.48,4.42C24.99,54.92,32.16,55,39.33,55z"/>
	<path d="M39.35,76.56c-4.06-0.13-7.48-1.6-9.95-4.93c-1.29-1.73-1-3.86,0.61-5.09c1.66-1.26,3.78-0.94,5.14,0.78
		c2.2,2.77,6.29,2.74,8.53-0.04c1.11-1.38,2.67-1.84,4.2-1.24c1.48,0.57,2.47,2,2.27,3.56c-0.09,0.72-0.38,1.49-0.81,2.07
		C46.88,75.01,43.45,76.45,39.35,76.56z"/>
</g>
</svg>
