<?xml version="1.0" encoding="utf-8"?>
<!-- Generator: Adobe Illustrator 24.0.1, SVG Export Plug-In . SVG Version: 6.00 Build 0)  -->
<svg version="1.1" id="Layer_1" xmlns="http://www.w3.org/2000/svg" xmlns:xlink="http://www.w3.org/1999/xlink" x="0px" y="0px"
	 viewBox="0 0 80 80" style="enable-background:new 0 0 80 80;" xml:space="preserve">
<style type="text/css">
	.st0{fill:none;stroke:#000000;stroke-width:15;stroke-miterlimit:10;}
	.st1{fill:#FF1D25;}
</style>
<g>
	<path d="M-464-64.82c-0.11,0.21-0.24,0.42-0.32,0.64c-0.93,2.52-2.99,4.04-5.7,4.1c-2.25,0.05-4.5,0.01-6.75,0.01
		c-22.71,0-45.41,0-68.12,0c-4.85,0-7.11-2.27-7.11-7.11c0-7.54-0.03-15.08,0.01-22.63c0.02-4.33,3.81-7.2,7.79-5.98
		c2.55,0.78,4.18,3.08,4.2,6.01c0.02,5.38,0.01,10.75,0.01,16.13c0,0.46,0,0.92,0,1.48c21.3,0,42.56,0,63.91,0
		c0-27.89,0-55.82,0-83.83c-21.26,0-42.52,0-63.91,0c0,1.11,0,2.18,0,3.25c0,4.88,0.03,9.75-0.02,14.63c-0.02,2.74-1.72,5-4.19,5.76
		c-2.45,0.76-5.14,0.02-6.52-2.16c-0.72-1.13-1.2-2.62-1.22-3.95c-0.11-7.71-0.07-15.42-0.05-23.12c0.01-3.99,2.49-6.47,6.49-6.48
		c10.54-0.01,21.08,0,31.62,0c14.04,0,28.08,0.07,42.12-0.05c3.77-0.03,6.47,1.11,7.77,4.8C-464-130.49-464-97.66-464-64.82z"/>
	<path d="M-592-115.32c0.61-1.78,1.83-3.1,3.14-4.4c5.45-5.4,10.84-10.84,16.28-16.25c2.47-2.46,5.65-2.79,8.13-0.92
		c2.98,2.25,3.3,6.27,0.62,9.09c-2.15,2.27-4.41,4.43-6.61,6.65c-0.28,0.28-0.55,0.59-1.01,1.08c0.67,0,1.11,0,1.55,0
		c22.37,0,44.74,0.01,67.12-0.01c2.42,0,4.44,0.69,5.8,2.77c2.44,3.76,0.05,8.71-4.43,9.19c-0.58,0.06-1.16,0.05-1.75,0.05
		c-22.21,0-44.41,0-66.62,0c-0.46,0-0.91,0-1.68,0c0.42,0.44,0.67,0.72,0.93,0.99c2.34,2.37,4.8,4.64,7.01,7.13
		c3.09,3.48,1.23,8.78-3.31,9.75c-1.82,0.39-3.5-0.03-4.91-1.23c-1.01-0.86-1.93-1.83-2.88-2.77c-4.75-4.74-9.47-9.5-14.24-14.22
		c-1.31-1.3-2.53-2.62-3.14-4.4C-592-113.66-592-114.49-592-115.32z"/>
</g>
<g>
	<path d="M-377-61.56c-14.5,0-29.01-0.16-43.51,0.05c-12.56,0.18-22.03-10.93-20.31-23.58c0.88-6.47,3.73-11.86,8.36-16.41
		c2.49-2.45,4.92-4.97,7.25-7.57c2.26-2.52,3.25-5.48,3.25-8.97c0-6.47-0.17-13.03,0.73-19.41c2.03-14.42,9.01-25.84,22.27-32.74
		c8.64-4.5,17.96-5.51,27.53-4.64c8.18,0.74,15.73,3.31,22.32,8.32c9.01,6.86,13.92,16.17,16.12,27.09
		c1.35,6.7,1.23,13.48,0.92,20.22c-0.22,4.88,1.57,8.61,4.77,11.93c2.11,2.2,4.36,4.27,6.45,6.5c6.36,6.78,9.27,14.68,7.17,23.93
		c-2.06,9.09-10,15.27-19.32,15.29C-347.66-61.54-362.33-61.56-377-61.56z M-377.14-75.78c14.5,0,29,0,43.51,0
		c4.15,0,6.47-2.42,6.37-6.56c-0.09-3.66-1.74-6.56-4.29-9.07c-2.26-2.22-4.52-4.43-6.65-6.76c-5.33-5.83-8.39-12.48-8.06-20.62
		c0.22-5.36,0.17-10.79-0.48-16.1c-1.17-9.52-5.21-17.71-14.11-22.25c-10.46-5.34-21.38-5.37-31.92-0.19
		c-9.11,4.47-13.29,12.7-14.47,22.34c-0.7,5.69-0.58,11.51-0.52,17.26c0.06,6.02-1.57,11.44-5.29,16.08
		c-2.87,3.58-6.13,6.86-9.33,10.16c-1.98,2.04-3.55,4.25-4.14,7.06c-1.06,5.01,1.35,8.82,6.88,8.73
		C-405.48-75.94-391.3-75.78-377.14-75.78z"/>
	<path d="M-377.09-33.18c-8.02-0.26-14.77-3.16-19.67-9.74c-2.54-3.42-1.98-7.64,1.2-10.06c3.27-2.49,7.46-1.85,10.16,1.54
		c4.34,5.46,12.42,5.42,16.86-0.08c2.19-2.72,5.27-3.63,8.31-2.46c2.92,1.13,4.87,3.95,4.49,7.04c-0.18,1.42-0.76,2.94-1.6,4.09
		C-362.21-36.25-369-33.4-377.09-33.18z"/>
</g>
<g>
	<g>
		<g>
			<path d="M-188.55-65c-9.73,0-19.46,0-29.19,0c-6.33,0-12.67,0-19,0c-3.37,0-7.04,0.34-10.37-0.27
				c-8.48-1.56-14.18-8.91-14.4-17.36c-0.09-3.35,0-6.72,0-10.07c0-13.18,0-26.36,0-39.53c0-10.75-1.17-23.29,11.2-28.1
				c3.71-1.44,7.71-1.16,11.61-1.16c6.16,0,12.33,0,18.49,0c10.47,0,20.97-0.25,31.44,0c8.07,0.2,15.04,5.17,17.18,13.1
				c0.9,3.32,0.58,7.04,0.58,10.46c0,14.29,0,28.58,0,42.87c0,4.11,0.1,8.23,0,12.33C-171.23-72.87-178.65-65.29-188.55-65
				c-7.71,0.22-7.74,12.22,0,12c11.01-0.32,21.33-6.16,26.34-16.16c2.74-5.47,3.21-11.18,3.21-17.14c0-13.91,0-27.82,0-41.73
				c0-13.04,1.5-26.66-8.65-36.81c-10.26-10.26-24.29-8.65-37.5-8.65c-12.66,0-25.33-0.11-37.99,0
				c-17.45,0.15-30.23,13.54-30.36,30.83c-0.09,12.9,0,25.8,0,38.7c0,11.21-1.95,25.14,3.52,35.39
				c5.21,9.76,15.34,15.34,26.24,15.59c5.31,0.12,10.64,0,15.95,0c13.08,0,26.17,0,39.25,0C-180.83-53-180.81-65-188.55-65z"/>
		</g>
	</g>
	<g>
		<g>
			<path d="M-222.25-143.54c-0.08,20.24-0.17,40.48-0.25,60.72c-0.03,7.72,11.97,7.73,12,0c0.08-20.24,0.17-40.48,0.25-60.72
				C-210.22-151.26-222.22-151.27-222.25-143.54L-222.25-143.54z"/>
		</g>
	</g>
	<g>
		<g>
			<path d="M-247.04-106.12c20.51-0.11,41.03-0.23,61.54-0.34c7.72-0.04,7.74-12.04,0-12c-20.51,0.11-41.03,0.23-61.54,0.34
				C-254.76-118.07-254.78-106.07-247.04-106.12L-247.04-106.12z"/>
		</g>
	</g>
</g>
<circle class="st0" cx="-76.91" cy="-117.91" r="42.59"/>
<g>
	<g>
		<path d="M-50.49-76.84c7.04,5.76,14.08,11.52,21.12,17.28c3.76,3.08,9.05,3.68,12.73,0c3.17-3.17,3.78-9.63,0-12.73
			c-7.04-5.76-14.08-11.52-21.12-17.28c-3.76-3.08-9.05-3.68-12.73,0C-53.66-86.39-54.27-79.93-50.49-76.84L-50.49-76.84z"/>
	</g>
</g>
<g>
	<path d="M69.38-74.59c-12.62,0-25.24-0.26-37.85,0.08C19.89-74.2,10.75-84.55,13.32-97.09c1-4.91,3.34-9.06,6.86-12.6
		c2.28-2.29,4.56-4.6,6.71-7.02c1.95-2.19,2.83-4.76,2.83-7.81c0-5.73-0.15-11.53,0.64-17.18c1.78-12.82,7.97-22.97,19.75-29.09
		c7.64-3.97,15.88-4.85,24.33-4.07c7.23,0.67,13.89,2.95,19.7,7.4c7.95,6.08,12.27,14.33,14.2,24c1.17,5.88,1.06,11.84,0.81,17.75
		c-0.18,4.35,1.37,7.72,4.25,10.69c1.85,1.9,3.78,3.71,5.6,5.64c5.72,6.07,8.29,13.16,6.35,21.45c-1.84,7.88-8.87,13.3-16.95,13.32
		C95.4-74.57,82.39-74.59,69.38-74.59z M69.43-87.18c12.81,0,25.63,0.01,38.44,0c3.48,0,5.56-2.15,5.53-5.62
		c-0.03-3.29-1.47-5.92-3.77-8.19c-2.03-2-4.07-3.99-5.98-6.09c-4.67-5.13-7.33-10.99-7.05-18.14c0.19-4.74,0.11-9.54-0.42-14.25
		c-0.8-7.15-3.58-13.58-9.6-17.89c-8.97-6.41-18.93-6.73-28.9-3.01c-9.43,3.52-13.77,11.34-14.97,20.87
		c-0.63,5.04-0.5,10.19-0.45,15.28c0.05,5.28-1.4,10.03-4.65,14.1c-2.57,3.21-5.48,6.14-8.34,9.1c-1.75,1.81-3.11,3.79-3.61,6.28
		c-0.9,4.47,1.33,7.7,6.06,7.62C44.3-87.31,56.87-87.18,69.43-87.18z"/>
	<path d="M69.41-49.46c-7.06-0.21-13.03-2.76-17.37-8.57c-2.3-3.08-1.8-6.86,1.09-9.01c2.91-2.16,6.56-1.55,8.96,1.48
		c3.7,4.69,11.01,4.71,14.72,0.02c2.44-3.09,6.17-3.68,9.07-1.44c2.83,2.19,3.26,5.94,0.93,9.04
		C82.46-52.19,76.53-49.67,69.41-49.46z"/>
</g>
<g>
	<path d="M274-129.48c-0.4,2.24-0.68,4.51-1.21,6.72c-1.42,5.84-4.28,11-7.84,15.78c-5.5,7.37-12.19,13.6-19.1,19.61
		c-8.14,7.08-16.33,14.12-24.51,21.15c-3.14,2.7-6.52,2.82-9.54,0.19c-10.64-9.23-21.31-18.43-31.83-27.8
		c-5.4-4.82-10.26-10.19-14.22-16.31c-7.1-10.96-9.02-22.71-4.52-35.05c4.07-11.17,11.96-18.47,23.82-20.76
		c12.29-2.37,22.18,2.03,30.04,11.49c0.38,0.46,0.74,0.94,1.11,1.41c0.04,0.06,0.11,0.1,0.3,0.25c0.43-0.54,0.84-1.09,1.28-1.63
		c4.56-5.58,10.11-9.66,17.22-11.34c12.39-2.93,25.54,2.24,32.69,12.76c3.53,5.2,5.49,10.93,6.12,17.15c0.04,0.4,0.13,0.8,0.2,1.2
		C274-132.92,274-131.2,274-129.48z M216.4-70.93c0.29-0.23,0.53-0.4,0.75-0.59c9.1-7.86,18.25-15.67,27.27-23.62
		c6.3-5.56,12.29-11.44,16.96-18.51c4.45-6.73,6.64-14.05,5.62-22.15c-1.1-8.74-4.84-16-12.61-20.57
		c-7.24-4.26-14.87-4.78-22.56-1.09c-4.54,2.18-7.9,5.74-10.71,9.85c-0.4,0.59-0.76,1.2-1.18,1.78c-1.85,2.53-5.15,2.52-7.04,0.02
		c-1.64-2.18-3.14-4.5-5.01-6.47c-6.03-6.37-13.47-8.84-22.06-6.98c-9.26,2-15.34,7.87-18.42,16.7
		c-3.58,10.26-1.87,19.91,4.04,28.91c3.67,5.58,8.16,10.47,13.09,14.91c8.16,7.34,16.48,14.5,24.75,21.72
		C211.65-74.98,214.02-72.98,216.4-70.93z"/>
	<g>
		<path d="M271.11-130.27c-1.36,8.18-3.75,15.07-8.75,21.78c-4.97,6.66-11.12,12.4-17.34,17.88c-6.62,5.83-13.34,11.56-20.02,17.31
			c-1.44,1.24-2.87,2.51-4.33,3.73c-3.39,2.82-5.8,2.19-8.92-0.45c-3.42-2.9-6.78-5.87-10.16-8.81
			c-12.58-10.92-27.5-21.55-35.45-36.58c-7.17-13.54-5.3-32.53,7.39-42.32c6.08-4.69,14.66-6.82,22.23-5.49
			c3.54,0.62,6.87,2.04,9.84,4.04c3.56,2.39,5.6,5.86,8.78,8.52c1.12,0.94,3.18,1.37,4.24,0c7.95-10.21,19.73-15.74,32.56-11.35
			c14.06,4.81,19.84,18.67,19.84,32.54c0,3.86,6,3.87,6,0c0-16.13-7.05-31.77-22.91-37.84c-14.98-5.73-30.18,0.15-39.73,12.41
			c1.41,0,2.83,0,4.24,0c-2.98-2.49-5.1-5.86-8.29-8.25c-3.11-2.33-6.6-4.16-10.34-5.23c-7.54-2.17-15.94-1.24-23.09,1.83
			c-15.09,6.47-22.87,24-20.7,39.83c2.79,20.32,20.2,33.87,34.63,46.47c4.1,3.58,8.21,7.15,12.33,10.71
			c3.39,2.94,7.21,7.57,11.9,8.31c3.64,0.57,6.46-1.25,9.15-3.46c4.41-3.63,8.67-7.45,12.99-11.18
			c8.98-7.75,18.35-15.28,26.12-24.28c7.41-8.58,11.74-17.32,13.6-28.5C277.52-132.46,271.74-134.08,271.11-130.27z"/>
		<path d="M218.52-68.81c10.09-7.95,19.73-16.75,29.28-25.33c7.95-7.14,16.01-15.3,20.03-25.39c7.29-18.33-3.15-42.33-24.54-43.36
			c-4.94-0.24-10,1.1-14.29,3.54c-4.36,2.48-6.69,6.11-10.02,9.63c-1.34,1.41-0.91,3.46-4.43,1.08c-0.61-0.41-1.43-1.98-1.94-2.65
			c-1.43-1.88-2.96-3.65-4.75-5.19c-3.59-3.09-7.85-5.27-12.54-6.04c-19.53-3.18-34.23,14.73-32.6,33.27
			c1.05,12.06,8.88,22.24,17.32,30.37c10.91,10.52,22.76,20.22,34.26,30.08c2.92,2.5,7.18-1.72,4.24-4.24
			c-8.25-7.07-16.45-14.2-24.6-21.38c-7.84-6.91-15.99-13.8-21.24-23c-5.14-9.01-5.55-20.09-0.12-29.11
			c4.53-7.52,13.81-11.72,22.49-9.95c4.18,0.86,7.82,3.26,10.73,6.33c2.62,2.77,4.4,7.41,8.22,8.78
			c7.33,2.63,10.57-7.01,15.02-10.73c8.59-7.18,21.32-5.82,28.81,2.27c6.33,6.84,7.9,17.72,5.05,26.41
			c-3.5,10.64-12.44,18.93-20.59,26.17c-9.19,8.16-18.37,16.61-28.03,24.21C211.25-70.67,215.52-66.45,218.52-68.81z"/>
	</g>
</g>
<g>
	<path d="M515.43-95.5c-9.76,0.01-17.72-7.99-17.67-17.73c0.05-9.73,7.94-17.59,17.65-17.6c9.77,0,17.72,7.97,17.66,17.73
		C533.03-103.36,525.15-95.5,515.43-95.5z"/>
	<path d="M469.52-95.49c-9.73,0-17.69-7.96-17.68-17.7c0.01-9.72,8.02-17.69,17.73-17.64c9.72,0.05,17.58,7.92,17.59,17.62
		C487.18-103.44,479.27-95.5,469.52-95.49z"/>
	<path d="M561.3-95.49c-9.75-0.02-17.64-7.96-17.63-17.73c0.02-9.73,8.03-17.68,17.75-17.6c9.77,0.08,17.62,8.03,17.57,17.8
		C578.95-103.37,570.98-95.47,561.3-95.49z"/>
</g>
<g>
	<path d="M360.33-168.77c1.71,0.21,3.41,0.54,5.08,0.95c37.24,9.16,53.01,52.42,30.42,83.46c-0.5,0.68-0.61,1.22-0.26,2.01
		c1.38,3.11,2.72,6.23,4,9.38c1.14,2.82,0.79,5.53-1.09,7.91c-1.91,2.42-4.47,3.45-7.55,2.93c-6.29-1.07-12.57-2.2-18.87-3.24
		c-0.92-0.15-1.97-0.13-2.85,0.14c-8.21,2.52-16.52,3.12-25.01,1.69c-28.95-4.86-48.71-32.66-43.74-61.57
		c4.37-25.38,26.62-44.12,52.5-44.32C355.42-169.22,357.88-169.07,360.33-168.77z M387.23-81.74c-0.95-2.13-0.66-3.84,0.82-5.65
		c22.04-26.89,6.81-67.43-27.54-73.36c-24.85-4.29-48.79,13.07-52.31,37.92c-3.51,24.86,12.88,47.33,37.67,51.59
		c6.72,1.15,13.43,0.8,19.89-1.37c3.06-1.03,5.93-1.06,9.01-0.45c5.52,1.1,11.09,2,16.64,2.98c0.18,0.03,0.37,0.02,0.79,0.04
		C390.51-74.04,388.94-77.92,387.23-81.74z"/>
	<g>
		<path d="M359.85-167.04c20.43,2.98,37.52,17.67,42.88,37.71c2.4,8.95,2.32,18.47-0.23,27.38c-1.36,4.73-3.4,9.22-6,13.39
			c-0.96,1.53-2.79,3.28-2.92,5.16c-0.15,2.2,1.66,4.72,2.47,6.63c1.9,4.46,4.36,10.44-2.11,12.53c-3.47,1.12-8.39-0.64-11.96-1.26
			c-3.11-0.54-6.29-1.32-9.44-1.61c-3.21-0.29-5.98,0.86-9.1,1.5c-12.36,2.51-25.48,0.36-36.35-6.03
			c-19.48-11.44-29.64-35.13-24.02-57.08c6.63-25.86,31.4-41.04,57.27-38.25c2.3,0.25,2.28-3.35,0-3.6
			c-24.5-2.64-48.29,10.01-58.09,33.11c-9.36,22.06-2.82,48.31,15.55,63.64c9.45,7.89,21.34,12.41,33.64,12.81
			c8.47,0.28,16.59-3.25,24.87-1.83c4.09,0.7,8.17,1.43,12.26,2.12c2.81,0.47,5.47,0.85,8.09-0.53c4.57-2.42,6.21-7.45,4.65-12.2
			c-0.91-2.77-3.64-6.23-3.71-9.13c-0.06-2.47,3.32-6.23,4.55-8.67c4.71-9.37,6.75-20.01,5.64-30.45
			c-2.66-24.91-22.16-45.2-46.97-48.81C358.55-170.84,357.57-167.37,359.85-167.04z"/>
		<path d="M388.97-82.22c-1.02-3.24,2.82-6.97,4.34-9.45c1.07-1.75,2.02-3.57,2.85-5.44c1.83-4.12,3.04-8.45,3.61-12.93
			c1.06-8.31-0.17-16.79-3.46-24.49c-6.72-15.73-21.6-26.63-38.61-28.42c-19.23-2.02-38.52,8.66-47.01,26.04
			c-8.56,17.5-5.22,39.24,8.2,53.36c7.47,7.86,17.61,12.87,28.34,14.32c7.67,1.04,13.46-0.8,20.83-2.15
			c7.88-1.45,16.27,2.76,24.14,3.13c1.06,0.05,2.18-1.21,1.74-2.28c-1.7-4.05-3.37-8.11-5.15-12.13c-0.94-2.11-4.04-0.28-3.11,1.82
			c1.65,3.73,3.21,7.51,4.79,11.27c0.58-0.76,1.16-1.52,1.74-2.28c-5.98-0.28-11.95-2.24-17.86-3.1c-6.2-0.9-11.42,1.84-17.51,2.4
			c-10.06,0.92-20.56-2.09-28.81-7.88c-15.75-11.06-22.39-31.86-16.12-50.05c6.25-18.13,24.64-30.19,43.72-29.04
			c17,1.03,32.05,12.18,38.09,28.06c3.16,8.32,3.75,17.57,1.52,26.2c-1.18,4.56-3.11,8.88-5.69,12.83
			c-2.52,3.87-5.58,6.27-4.03,11.16C386.19-79.06,389.67-80,388.97-82.22z"/>
	</g>
</g>
<g>
	<path d="M682.42-72.44c-3.45,0-6.67,0-9.9,0c-22.77,0-45.55,0-68.32,0c-0.99,0-1.99,0.08-2.95-0.09c-2.04-0.36-3.14-1.67-3.12-3.75
		c0.02-2.08,1.13-3.37,3.18-3.69c0.96-0.15,1.97-0.08,2.95-0.08c24.93,0,49.85,0,74.78,0c1.07,0,2.14,0,3.37,0
		c0.25-0.83,0.48-1.57,0.69-2.32c2.9-10.02,11.9-16.87,22.1-16.83c10.25,0.04,19.26,6.9,22,16.94c0.47,1.74,1.12,2.28,2.87,2.24
		c5.38-0.1,10.76-0.05,16.14-0.03c3.1,0.01,4.81,1.41,4.79,3.83c-0.02,2.41-1.72,3.76-4.85,3.78c-5.47,0.02-10.94,0.04-16.41-0.02
		c-1.36-0.02-2.01,0.33-2.43,1.76c-3.13,10.7-11.73,17.41-22.17,17.41c-10.48,0-19.18-6.9-22.29-17.67
		C682.73-71.39,682.6-71.82,682.42-72.44z M705.15-91.49c-8.58,0.01-15.4,6.87-15.29,15.38c0.11,8.47,6.82,15.09,15.3,15.1
		c8.59,0.01,15.28-6.75,15.23-15.38C720.34-84.87,713.63-91.5,705.15-91.49z"/>
	<g>
		<path d="M682.42-75.44c-13.06,0-26.12,0-39.18,0c-7.16,0-14.32,0-21.47,0c-3.25,0-6.51,0-9.76,0c-2.35,0-8.24,1.08-10.09-0.41
			c-1.55-1.25,1.29-1.1,2.34-1.2c1.61-0.16,3.3,0,4.92,0c3.61,0,7.22,0,10.82,0c6.89,0,13.78,0,20.66,0c13.91,0,27.83,0,41.74,0
			c1.34,0,2.51-0.94,2.89-2.2c2.09-6.93,5.66-12.87,12.72-15.63c6.67-2.6,14.45-1.25,19.91,3.36c2.48,2.1,4.38,4.78,5.59,7.78
			c0.82,2.03,1.12,4.56,3.12,5.86c2.37,1.54,6.18,0.82,8.8,0.81c0.83,0,12.87,0.07,12.55,0.86c-0.75,1.86-11.29,0.8-12.79,0.79
			c-2.68-0.01-6.14-0.67-8.51,0.77c-2.24,1.36-2.47,4.21-3.47,6.42c-1.35,2.96-3.34,5.68-5.88,7.73
			c-5.29,4.27-12.83,5.39-19.17,2.97c-7.02-2.68-10.82-8.79-12.86-15.7c-1.09-3.7-6.88-2.12-5.79,1.6
			c3.72,12.59,13.76,22.37,27.63,21.26c5.96-0.48,11.58-2.96,15.85-7.18c2.22-2.2,4.06-4.83,5.4-7.65c0.39-0.82,0.83-3.28,1.35-3.79
			c0.97-0.95,5.45-0.43,7.28-0.43c5.1,0,14.81,1.8,16.71-4.88c1.83-6.43-4.25-8.67-9.33-8.75c-2.39-0.04-4.78-0.03-7.17-0.02
			c-1.65,0-4.86,0.65-6.28,0.05c-1.34-0.57-1.09-0.95-1.77-2.69c-0.68-1.73-1.52-3.39-2.56-4.93c-3.45-5.11-8.59-8.92-14.55-10.59
			c-15.54-4.36-28.26,6.11-32.58,20.38c0.96-0.73,1.93-1.47,2.89-2.2c-17.52,0-35.04,0-52.56,0c-8.52,0-17.06-0.12-25.58,0
			c-4.7,0.07-9.55,1.61-9.08,7.35c0.5,6.07,6.11,6.28,10.96,6.27c8.46-0.02,16.92,0,25.38,0c16.96,0,33.93,0,50.89,0
			C686.28-69.44,686.29-75.44,682.42-75.44z"/>
		<path d="M705.15-94.49c-9.77,0.42-18.01,7.62-18.27,17.71c-0.26,10.21,8.07,18.75,18.28,18.76c9.56,0.01,17.56-7.5,18.18-17.04
			C724.04-85.83,715.6-94.05,705.15-94.49c-3.86-0.16-3.85,5.84,0,6c15.81,0.67,15.83,24.62,0.02,24.48
			c-15.9-0.14-15.84-23.79-0.02-24.48C708.99-88.66,709.01-94.66,705.15-94.49z"/>
	</g>
</g>
<g>
	<path d="M616.13-111.63c-4.66,0-9.22,0.01-13.79,0c-2.23,0-3.85-0.88-4.2-3.27c-0.37-2.52,1.31-4.32,4.19-4.37
		c4.56-0.07,9.13-0.02,13.86-0.02c1.08-4.84,3.12-9.06,6.61-12.46c12.46-12.16,33.04-6.83,37.99,9.92c0.61,2.05,1.41,2.59,3.46,2.58
		c26.91-0.07,53.81-0.05,80.72-0.04c0.98,0,2-0.08,2.94,0.14c1.97,0.45,3.16,1.75,3.08,3.83c-0.08,2.05-1.25,3.33-3.32,3.58
		c-1.06,0.13-2.15,0.12-3.22,0.12c-26.73,0.01-53.46,0.03-80.18-0.04c-2.04-0.01-2.87,0.52-3.46,2.59
		c-2.84,9.95-11.81,16.59-21.99,16.58c-10.13-0.01-19.03-6.78-21.95-16.69C616.65-109.87,616.45-110.55,616.13-111.63z
		 M654.12-115.32c0.04-8.49-6.6-15.3-15-15.39c-8.58-0.09-15.48,6.61-15.58,15.14c-0.1,8.43,6.87,15.45,15.33,15.45
		C647.25-100.12,654.08-106.93,654.12-115.32z"/>
	<g>
		<path d="M616.13-114.63c-2.64,0-5.28,0-7.91,0c-0.59,0-8.22,0.61-5.89-1.64c0.73-0.7,5.78-0.04,6.87-0.04
			c2.33,0,4.66,0.01,6.99,0.02c1.29,0,2.58-0.93,2.89-2.2c2.27-9.1,9.02-16.37,18.77-16.86c7.12-0.35,14.04,3.24,17.8,9.3
			c1.6,2.57,1.87,6.36,4.2,8.37c3.01,2.6,8.69,1.42,12.26,1.41c11.16-0.02,22.31-0.03,33.47-0.03c11.81,0,23.63,0,35.44,0.01
			c0.84,0,7.69-0.54,5.03,1.66c-1.01,0.84-6.15,0.01-7.48,0.01c-5.87,0-11.73,0-17.6,0c-11.73,0-23.47,0-35.2-0.01
			c-5.22-0.01-10.43-0.01-15.65-0.02c-3.26-0.01-7.98-0.97-10.57,1.65c-1.22,1.23-1.48,2.92-2.08,4.47
			c-0.97,2.48-2.28,4.75-4.1,6.72c-3.4,3.69-8.19,5.94-13.19,6.28c-11,0.76-18.27-7.1-21.16-16.89c-1.09-3.7-6.88-2.12-5.79,1.6
			c2.64,8.97,7.74,16.44,16.85,19.79c8.66,3.18,18.62,1.28,25.61-4.7c3.71-3.18,5.47-6.91,7.56-11.19c1.32-2.71,3.94-1.72,6.86-1.71
			c3.91,0.01,7.82,0.01,11.73,0.02c14.34,0.02,28.68,0.02,43.03,0.01c6.52,0,13.04,0.12,19.56-0.01c4.34-0.09,8.78-0.79,9.43-5.9
			c0.4-3.13-1.14-5.93-4.09-7.15c-2.66-1.1-5.97-0.62-8.76-0.62c-3.94,0-7.88,0-11.81,0c-14.44,0-28.88-0.01-43.31,0.01
			c-6.48,0.01-13.23,0.6-19.69,0.03c-3.09-0.27-2.53-0.84-3.69-3.52c-1-2.31-2.28-4.42-3.89-6.35c-5.77-6.93-14.96-10.31-23.86-8.91
			c-11.09,1.75-18.83,10.34-21.47,20.94c0.96-0.73,1.93-1.47,2.89-2.2c-5.85-0.01-20.32-2.86-21.07,6.19
			c-0.87,10.47,15.02,7.47,21.01,7.47C619.99-108.63,620-114.63,616.13-114.63z"/>
		<path d="M657.12-115.32c-0.38-9.93-7.73-18.26-18-18.39c-9.78-0.13-18.09,7.72-18.54,17.47c-0.46,9.97,7.64,18.69,17.6,19.08
			C648.68-96.74,656.62-105.18,657.12-115.32c0.19-3.86-5.81-3.85-6,0c-0.33,6.63-5.38,12.2-12.25,12.2
			c-7.09-0.01-12.88-6.3-12.26-13.36c1.36-15.3,23.92-14.05,24.51,1.16C651.27-111.47,657.27-111.45,657.12-115.32z"/>
	</g>
</g>
<g>
	<path d="M828.73-155.15c0-1.88-0.05-3.46,0.01-5.04c0.12-3.45,2.48-5.8,5.75-5.77c3.15,0.02,5.46,2.3,5.63,5.65
		c0.08,1.58,0.01,3.18,0.01,4.97c10.84,0,21.43,0,32.35,0c0-1.58-0.06-3.08,0.01-4.57c0.17-3.65,2.53-6.08,5.81-6.04
		c3.26,0.03,5.44,2.26,5.65,5.89c0.09,1.51,0.01,3.03,0.01,4.93c1.69,0,3.18-0.02,4.67,0c9.93,0.16,17.09,6.99,17.14,16.86
		c0.13,21.89,0.12,43.79,0,65.68c-0.05,9.69-7.1,16.54-16.77,16.57c-21.89,0.05-43.79,0.05-65.68,0
		c-8.93-0.02-15.9-6.71-16.45-15.64c-0.13-2.19-0.13-4.39-0.13-6.59c-0.01-19.27,0-38.55-0.01-57.82c-0.01-12.27,6.65-19,18.9-19.06
		C826.55-155.16,827.46-155.15,828.73-155.15z M818.28-110.69c0,1.03,0,1.79,0,2.54c0,11.41,0,22.81,0.01,34.22
		c0.01,4.79,1.73,6.49,6.6,6.49c20.95,0.01,41.9,0.01,62.86,0.01c5,0,6.63-1.64,6.64-6.7c0.01-11.32,0-22.64-0.01-33.96
		c0-0.82-0.09-1.64-0.14-2.59C868.9-110.69,843.76-110.69,818.28-110.69z M818.34-122.22c1.33,0,2.32,0,3.32,0
		c10.57,0,21.13,0,31.7,0c12.85,0,25.69-0.03,38.54,0.03c1.8,0.01,2.58-0.4,2.53-2.39c-0.13-4.64,0.03-9.3-0.09-13.94
		c-0.09-3.73-2.45-5.07-7.75-5.18c-4.03-0.08-2.24,2.81-2.64,4.59c-0.09,0.41-0.01,0.84-0.05,1.26c-0.26,2.73-2.39,4.88-5.09,5.13
		c-2.78,0.26-5.22-1.32-5.94-4.05c-0.32-1.2-0.52-2.53-0.35-3.74c0.39-2.74-0.87-3.23-3.28-3.19c-8.54,0.12-17.07,0.05-25.61,0.06
		c-3.5,0-3.38,0.02-3.54,3.61c-0.08,1.71-0.35,3.58-1.15,5.04c-1.15,2.1-4.03,2.79-6.27,2.03c-2.42-0.83-3.79-2.8-3.91-5.62
		c-0.22-5.41-0.82-5.88-6.15-4.91c-2.48,0.45-4.1,1.99-4.19,4.4C818.21-133.63,818.34-128.14,818.34-122.22z"/>
	<g>
		<path d="M829.93-155.15c-0.02-3.08-0.8-7.95,2.96-9c1.47-1.09,2.72-0.73,3.74,1.09c1.7,0.5,2.45,1.51,2.23,3.02
			c0.29,1.45,0.08,3.24,0.07,4.69c-0.01,0.65,0.55,1.2,1.2,1.2c10.78,0,21.57,0,32.35,0c0.64,0,1.21-0.55,1.2-1.2
			c-0.03-3.4-0.46-9.44,4.62-9.42c4.93,0.02,4.5,6.22,4.47,9.62c-0.01,0.65,0.55,1.2,1.2,1.2c9.35-0.03,18.76,2.34,20.38,13.11
			c0.76,5.02,0.27,10.41,0.29,15.49c0.02,5.64,0.03,11.28,0.03,16.92c0,10.62-0.02,21.23-0.07,31.85c-0.02,4.57,0,9.07-2.72,12.99
			c-2.81,4.05-7.38,6.04-12.19,6.33c-10.76,0.65-21.75,0.06-32.53,0.06c-10.61,0-21.23,0.05-31.85-0.04
			c-11.67-0.1-17.25-7.39-17.36-18.57c-0.11-10.79-0.01-21.59-0.01-32.38c0-5.98,0-11.96,0-17.94c0-5.2-0.6-10.79,0.63-15.89
			c2.4-9.97,11.13-11.94,20.15-11.93c1.54,0,1.55-2.4,0-2.4c-7.08-0.01-14.48,0.69-19.18,6.67c-5.87,7.48-4.01,18.78-4.01,27.54
			c0,13.96,0,27.91,0.01,41.87c0.01,8.7,0.09,17.6,8.32,22.75c3.89,2.43,7.97,2.68,12.44,2.69c6.97,0.01,13.93,0.02,20.9,0.03
			c13.89,0.01,27.92,0.54,41.8-0.04c7.6-0.31,14.42-4.17,16.96-11.66c1.62-4.77,1.03-10.12,1.05-15.07
			c0.03-7.3,0.05-14.6,0.05-21.89c0-7.63-0.01-15.26-0.04-22.89c-0.02-6.05,0.93-12.97-1.29-18.75
			c-3.65-9.48-12.68-11.28-21.78-11.26c0.4,0.4,0.8,0.8,1.2,1.2c0.04-5.05-0.1-11.99-6.87-12.02c-6.7-0.03-7.06,6.79-7.02,11.82
			c0.4-0.4,0.8-0.8,1.2-1.2c-10.78,0-21.57,0-32.35,0c0.4,0.4,0.8,0.8,1.2,1.2c0.04-5.23-0.32-12.28-7.43-11.77
			c-6.51,0.47-6.4,7.02-6.37,11.97C827.54-153.61,829.94-153.6,829.93-155.15z"/>
		<path d="M817.08-110.69c0,7.82,0,15.63,0,23.45c0,4.41-0.2,8.9,0.01,13.31c0.08,1.57,0.12,3.27,0.92,4.67
			c2.13,3.73,7.21,3.02,10.81,3.02c8.84,0,17.68,0.01,26.52,0.01c8.51,0,17.02,0,25.53,0c3.75,0,10.45,1.28,13.28-2.23
			c3.13-3.88,1.44-12.18,1.44-16.66c0-8.49,0.41-17.1-0.15-25.57c-0.04-0.65-0.51-1.2-1.2-1.2c-25.32,0-50.64,0-75.95,0
			c-1.54,0-1.55,2.4,0,2.4c25.32,0,50.64,0,75.95,0c-0.4-0.4-0.8-0.8-1.2-1.2c0.41,6.16,0.15,12.4,0.15,18.57
			c0,6.1,1.06,13.29-0.04,19.28c-0.77,4.16-3.82,4.19-7.36,4.21c-3.27,0.02-6.55,0-9.82,0c-6.87,0-13.75,0-20.62,0
			c-6.55,0-13.09,0-19.64,0c-4.95,0-15.61,2.23-16.18-4.68c-1.01-12.27-0.04-25.05-0.04-37.37
			C819.48-112.24,817.08-112.24,817.08-110.69z"/>
		<path d="M818.34-121.02c21.95,0,43.9-0.04,65.85,0c2.64,0.01,7.61,1.1,10-0.4c2.03-1.28,1.41-4.15,1.39-6.14
			c-0.05-5.14,2.25-14.42-4.18-16.67c-1.93-0.68-5.52-1.37-7.33-0.14c-1.54,1.05-1.11,2.16-1.31,3.78
			c-0.19,1.51-0.07,1.65-0.68,3.44c-0.22,0.65-0.44,1.3-0.66,1.95c-4.87,1.16-7.4,0.17-7.58-2.97c-0.32-1.4,0.26-2.93-0.21-4.28
			c-0.58-1.65-1.58-2.16-3.29-2.42c-4.73-0.7-10.11,0.04-14.9,0.03c-4.24,0-10.07-1.11-14.15,0.09c-1.43,0.42-1.83,0.92-2.24,2.31
			c-0.44,1.47-0.1,3.18-0.44,4.69c-0.34,1.5-1.13,3.12-2.74,3.68c-4.19,1.46-5.42-2.96-6-5.77c-0.34-1.67-0.15-3.5-1.69-4.63
			c-1.68-1.23-4.71-0.57-6.5-0.03c-2.59,0.78-4.03,2.42-4.44,5.08c-0.85,5.51-0.12,11.64-0.11,17.2c0,1.54,2.4,1.55,2.4,0
			c-0.01-4.1-0.07-8.2-0.03-12.3c0.03-3.49-0.34-6.18,3.4-7.82c2.6-1.14,3.95,0.19,4.57,2.51c1.04,3.91,1.03,7.67,6.18,8.31
			c4.63,0.57,6.97-2.93,7.5-7.04c0.18-1.42-0.26-3.05,1.32-3.87c1.09-0.57,3.86-0.01,5.09-0.01c4.92,0,9.85,0.02,14.78,0
			c1.79-0.01,4.18-0.45,5.91-0.05c3.11,0.73,2.78,2.05,3.15,4.49c0.3,2.05,1.11,3.97,2.82,5.23c3.14,2.3,7.85,1.33,9.88-1.98
			c1.1-1.79,0.63-3.57,1.09-5.46c0.43-1.77,0.82-2.2,2.91-2.22c3.99-0.05,4.84,2.48,5.08,5.9c0.18,2.56,1.06,10.95-0.61,12.55
			c-1.2,1.15-3.86,0.58-5.48,0.58c-2.57-0.01-5.14-0.01-7.71-0.02c-20.34-0.02-40.69,0-61.03,0
			C816.8-123.42,816.8-121.02,818.34-121.02z"/>
	</g>
</g>
<path d="M-714.43-93.44c0-9.14,0.05-18.28-0.02-27.42c-0.03-4.03,1.41-7.28,4.34-10.02c13.88-12.98,27.71-26.01,41.56-39.02
	c5.16-4.85,11.43-4.88,16.59-0.03c13.86,13,27.69,26.03,41.56,39.02c3.04,2.85,4.54,6.2,4.52,10.42
	c-0.08,18.38-0.02,36.77-0.04,55.15c-0.01,5.93-3.62,10.71-9.04,11.98c-0.99,0.23-2.05,0.26-3.07,0.27
	c-7.18,0.02-14.36-0.16-21.53,0.06c-6.64,0.2-12.25-5.32-12.22-12.25c0.03-7.38,0.01-14.77,0.01-22.15c0-5.7-3.17-9.37-8.16-9.45
	c-5.51-0.1-10.06,4.11-10.13,9.55c-0.09,7.43,0.01,14.87-0.04,22.31c-0.04,5.66-3.75,10.43-9.06,11.68
	c-1.04,0.24-2.15,0.29-3.23,0.29c-6.56,0.03-13.12-0.13-19.67,0.05c-7.72,0.22-12.51-6.33-12.4-12.39
	C-714.32-74.74-714.43-84.09-714.43-93.44z M-703.77-93.34c0,9.09,0,18.18,0,27.26c0,2.19,0.18,2.36,2.4,2.36
	c6.04,0,12.08,0,18.12,0c2.29,0,2.41-0.12,2.41-2.48c0-6.87-0.06-13.74,0.02-20.6c0.14-12.75,10.79-22.12,23.36-20.61
	c9.26,1.11,16.35,9.35,16.41,19.17c0.05,7.49,0.01,14.97,0.01,22.46c0,1.84,0.24,2.07,2.04,2.07c6.61,0,13.22,0,19.83,0
	c2.48,0,2.59-0.11,2.59-2.64c0-17.87-0.02-35.73,0.03-53.6c0-1.48-0.45-2.48-1.51-3.47c-13.65-12.77-27.28-25.56-40.87-38.39
	c-1.05-0.99-1.66-0.91-2.66,0.04c-13.71,12.93-27.47,25.81-41.16,38.76c-0.61,0.57-0.96,1.7-0.97,2.57
	C-703.79-111.41-703.77-102.37-703.77-93.34z"/>
<path d="M-775.95-142.77c0.03-6.71,5.49-12.13,12.16-12.08c6.7,0.05,12.07,5.53,12,12.23c-0.07,6.68-5.43,12-12.09,12
	C-770.57-130.62-775.98-136.06-775.95-142.77z"/>
<path d="M-751.79-78.16c0.02,6.7-5.4,12.16-12.08,12.16c-6.63,0-12.02-5.37-12.08-12.03c-0.06-6.71,5.32-12.18,12.02-12.2
	C-757.22-90.26-751.81-84.88-751.79-78.16z"/>
<path d="M-763.84-122.51c6.69,0.01,12.03,5.35,12.06,12.04c0.02,6.75-5.36,12.14-12.1,12.13c-6.74-0.02-12.11-5.44-12.06-12.18
	C-775.9-117.21-770.53-122.52-763.84-122.51z"/>
<g>
	<g>
		<path class="st1" d="M120.44-189.99c-7.38,0-14.76-0.08-22.13,0.03c-6.39,0.09-11.21-5.56-10.33-12c0.45-3.29,1.9-6.03,4.25-8.35
			c1.27-1.25,2.5-2.53,3.69-3.85c1.15-1.28,1.66-2.79,1.66-4.56c0-3.29-0.08-6.63,0.37-9.87c1.03-7.33,4.58-13.14,11.33-16.66
			c4.39-2.29,9.14-2.8,14.01-2.36c4.16,0.38,8,1.68,11.35,4.23c4.58,3.49,7.08,8.22,8.2,13.78c0.69,3.41,0.63,6.86,0.47,10.29
			c-0.11,2.48,0.8,4.38,2.43,6.07c1.08,1.12,2.22,2.17,3.28,3.31c3.24,3.45,4.72,7.47,3.65,12.17c-1.05,4.62-5.09,7.77-9.83,7.78
			C135.37-189.98,127.9-189.99,120.44-189.99z M120.37-197.22c7.38,0,14.76,0,22.13,0c2.11,0,3.29-1.23,3.24-3.34
			c-0.05-1.86-0.88-3.34-2.18-4.61c-1.15-1.13-2.3-2.25-3.39-3.44c-2.71-2.96-4.27-6.35-4.1-10.49c0.11-2.72,0.09-5.49-0.24-8.19
			c-0.6-4.84-2.65-9.01-7.18-11.32c-5.32-2.72-10.88-2.73-16.24-0.1c-4.63,2.28-6.76,6.46-7.36,11.37c-0.36,2.9-0.3,5.85-0.26,8.78
			c0.03,3.06-0.8,5.82-2.69,8.18c-1.46,1.82-3.12,3.49-4.74,5.17c-1.01,1.04-1.8,2.16-2.11,3.59c-0.54,2.55,0.69,4.49,3.5,4.44
			C105.95-197.3,113.16-197.22,120.37-197.22z"/>
		<path class="st1" d="M120.4-175.55c-4.08-0.13-7.52-1.61-10.01-4.95c-1.29-1.74-1.01-3.88,0.61-5.12c1.67-1.27,3.8-0.94,5.17,0.78
			c2.21,2.78,6.32,2.76,8.58-0.04c1.11-1.38,2.68-1.85,4.23-1.25c1.48,0.57,2.48,2.01,2.29,3.58c-0.09,0.72-0.38,1.5-0.81,2.08
			C127.97-177.11,124.51-175.66,120.4-175.55z"/>
	</g>
	<polygon class="st1" points="99.13,-214.35 105.74,-240.8 124.57,-244.87 135.25,-237.75 141.86,-211.81 148.48,-199.6 
		141.86,-194 95.06,-194 93.02,-205.7 	"/>
</g>
<path d="M-776.01-14.68c1,0,1.96,0,2.97,0c0,0.21,0,0.39,0,0.57c0,5.79-0.01,11.58,0,17.37c0,2.5,1.93,4.5,4.35,4.57
	c2.57,0.07,4.64-1.94,4.65-4.55c0.01-4.18,0-8.36,0-12.53c0-1.78,0-3.57,0-5.35c-0.01-4.36-3.42-7.69-7.76-7.6
	c-3.87,0.08-7.21,3.35-7.24,7.22c-0.05,6.24-0.06,12.49,0,18.73c0.05,5.08,4.2,9.49,9.26,10.02c5.71,0.6,10.68-3.16,11.62-8.82
	c0.1-0.61,0.12-1.25,0.12-1.87c0.01-5.73,0.01-11.45,0.01-17.18c0-0.17,0-0.34,0-0.55c0.99,0,1.96,0,2.98,0
	c0.01,0.14,0.02,0.29,0.02,0.44c0,5.84,0.01,11.67,0,17.51c-0.02,6.42-4.3,11.77-10.55,13.24c-7.49,1.76-15.16-3.42-16.3-11.02
	c-0.12-0.77-0.18-1.56-0.18-2.34c-0.01-5.92-0.01-11.83-0.01-17.75c0-5.31,3.66-9.63,8.89-10.51c5.78-0.98,11.45,3.32,12.05,9.13
	c0.05,0.47,0.08,0.94,0.08,1.4c0.01,5.95,0.01,11.89,0,17.84c-0.01,4.32-3.45,7.65-7.77,7.55c-3.84-0.09-7.18-3.29-7.23-7.13
	c-0.07-6.07-0.02-12.14-0.02-18.21C-776.04-14.55-776.02-14.6-776.01-14.68z"/>
<path d="M-668,2.01c0.85,0,1.7-0.04,2.55,0.01c1.55,0.1,2.63,1.18,2.62,2.57c0,1.27-1.05,2.37-2.55,2.46c-1.7,0.1-3.4,0.1-5.1,0.04
	c-1.02-0.03-1.33,0.37-1.47,1.35c-2.18,14.92-12.13,25.36-26.86,28.25c-2.92,0.57-2.91,0.57-2.92,3.65c0,1.08,0.04,2.16-0.05,3.23
	c-0.13,1.43-1.29,2.51-2.6,2.4c-1.43-0.12-2.32-0.98-2.4-2.41c-0.1-1.7-0.1-3.4-0.04-5.1c0.03-1.05-0.3-1.47-1.41-1.6
	c-14.94-1.78-26.51-13.35-28.41-28.4c-0.14-1.13-0.58-1.42-1.61-1.37c-1.53,0.06-3.06,0.05-4.59-0.01c-1.79-0.07-2.95-1.18-2.9-2.67
	c0.04-1.38,1.21-2.36,2.96-2.4c1.53-0.04,3.06-0.05,4.59,0c0.95,0.03,1.43-0.2,1.53-1.27c1.28-13,11.68-25.83,26.93-28.38
	c2.9-0.48,2.89-0.55,2.89-3.49c0-1.08-0.04-2.16,0.04-3.23c0.11-1.54,1.25-2.61,2.63-2.57c1.27,0.04,2.33,1.11,2.4,2.61
	c0.08,1.7,0.07,3.4,0.03,5.1c-0.02,0.91,0.3,1.31,1.24,1.39c12.57,1.18,24.83,10.81,28.03,25.25c0.13,0.61,0.23,1.22,0.34,1.84
	C-671.61,2-671.61,2-668.85,2C-668.57,2-668.28,2-668,2.01C-668,2-668,2-668,2.01z M-704.17-23c-15.17-0.03-27.62,12.28-27.64,27.33
	c-0.02,15.23,12.22,27.7,27.24,27.73c15.34,0.04,27.76-12.17,27.82-27.33C-676.7-10.54-689-22.97-704.17-23z"/>
<path d="M-704.38,15.71c-6.11-0.06-11.17-5.18-11.09-11.25c0.08-6.16,5.19-11.22,11.22-11.11c6.16,0.12,11.14,5.14,11.12,11.24
	C-693.14,10.63-698.34,15.77-704.38,15.71z M-704.25-1.45c-3.33-0.04-6.09,2.67-6.1,6.01c-0.01,3.32,2.69,6.01,6.07,6.05
	c3.22,0.04,5.94-2.64,6.01-5.93C-698.19,1.37-700.91-1.41-704.25-1.45z"/>
<path d="M-197.5,140.85c-1.91,1.4-3.9,2.46-6.11,3.12c-10.28,3.05-21.29-3.88-22.98-14.47c-1.64-10.28,5.17-19.6,15.5-21.19
	c9.52-1.46,19.03,5.48,20.49,15c0.19,1.26,0.28,2.56,0.29,3.83c0.04,4.03-0.02,8.05,0.03,12.08c0.05,3.86,3.63,6.39,7.25,5.18
	c2.14-0.72,3.64-2.58,3.66-4.98c0.04-5.31,0.28-10.65-0.19-15.92c-0.79-9.04-5.17-16.24-12.7-21.32
	c-16.76-11.31-39.64-2.57-44.67,17c-4.03,15.65,5.52,31.7,21.18,35.61c3.13,0.78,6.31,0.94,9.52,0.89c0.39-0.01,0.78,0,1.23,0
	c0,2.44,0,4.8,0,7.17c-0.08,0.04-0.16,0.09-0.23,0.1c-11.76,0.58-21.99-2.95-30.08-11.67c-7.76-8.38-11.07-18.41-9.43-29.72
	c2.06-14.18,9.99-24.2,23.34-29.25c13.17-4.98,25.54-2.66,36.43,6.31c6.94,5.72,11.01,13.22,12.48,22.09
	c0.3,1.85,0.4,3.75,0.43,5.63c0.06,4.31,0.06,8.62,0.01,12.93c-0.07,6.34-4.48,11.48-10.73,12.56c-6.59,1.15-13.16-3.38-14.49-9.99
	C-197.34,141.54-197.41,141.24-197.5,140.85z M-219.55,126.36c-0.02,6.08,4.81,10.99,10.86,11.03c6.13,0.04,11.05-4.81,11.07-10.9
	c0.02-6.08-4.81-10.99-10.86-11.03C-214.6,115.42-219.53,120.27-219.55,126.36z"/>
<g>
	<path d="M21.65,25.47c0-1.56-0.01-3.09,0-4.63c0.05-9.05,5.98-16.2,14.88-17.93c9.65-1.87,19.54,5.19,20.85,14.91
		c0.15,1.14,0.19,2.3,0.22,3.45c0.04,1.39,0.01,2.78,0.01,4.23c0.72,0.16,1.42,0.28,2.09,0.45c5.12,1.35,8.31,5.01,9.03,10.42
		c0.17,1.26,0.22,2.53,0.23,3.8c0.02,7.1-0.02,14.2,0.03,21.3c0.01,1.92,0.14,3.83-0.39,5.72c-1.57,5.57-6.68,9.43-12.46,9.37
		c-3.67-0.04-7.34-0.07-11-0.07c-6.75-0.01-13.49-0.05-20.24,0.02c-2.33,0.02-4.6,0-6.79-0.91c-5.18-2.15-8.4-7.49-7.85-13.05
		c0.04-0.38,0.04-0.77,0.04-1.15c0.01-7.63-0.01-15.26,0.06-22.89c0.01-1.43,0.27-2.89,0.66-4.27c1.37-4.85,4.73-7.53,9.58-8.5
		c0.23-0.05,0.47-0.08,0.7-0.13C21.36,25.59,21.45,25.55,21.65,25.47z M39.6,70.81c4.91,0,9.82,0.01,14.73-0.01
		c0.94,0,1.89-0.06,2.83-0.18c3.4-0.43,5.4-2.36,5.91-5.74c0.16-1.05,0.21-2.12,0.21-3.18c0.02-6.6,0.01-13.19,0.01-19.79
		c0-1.3,0.02-2.6-0.06-3.9c-0.23-3.82-2.09-6.04-5.62-6.73c-0.78-0.15-1.59-0.23-2.38-0.23c-10.41-0.01-20.82-0.01-31.23,0
		c-0.71,0-1.42,0.08-2.12,0.19c-3.25,0.5-5.19,2.41-5.68,5.67c-0.16,1.05-0.21,2.12-0.21,3.18c-0.02,7.04-0.01,14.08-0.01,21.12
		c0,0.89,0,1.78,0.06,2.66c0.23,3.47,1.83,5.71,4.8,6.47c1.24,0.32,2.57,0.43,3.86,0.45C29.66,70.84,34.63,70.81,39.6,70.81z
		 M51.91,25.32c0-1.72,0.03-3.37-0.01-5.02c-0.14-5.44-3.76-10.06-9.01-11.53c-5.16-1.45-10.63,0.69-13.62,5.2
		c-2.33,3.52-1.95,7.42-1.9,11.35C35.54,25.32,43.66,25.32,51.91,25.32z"/>
	<path d="M36.78,54.92c0-0.65-0.01-1.3,0-1.95c0.03-1.2-0.05-2.23-0.96-3.3c-1.59-1.87-1-4.77,0.98-6.29
		c1.95-1.5,4.78-1.23,6.42,0.61c1.67,1.87,1.6,4.67-0.21,6.39c-0.44,0.42-0.57,0.82-0.56,1.38c0.02,2.16,0.02,4.31,0.01,6.47
		c-0.01,1.81-1.17,3.09-2.81,3.12c-1.65,0.02-2.86-1.3-2.87-3.15C36.78,57.11,36.78,56.01,36.78,54.92z"/>
</g>
</svg>
