<?xml version="1.0" encoding="utf-8"?>
<!-- Generator: Adobe Illustrator 24.0.1, SVG Export Plug-In . SVG Version: 6.00 Build 0)  -->
<svg version="1.1" id="Layer_1" xmlns="http://www.w3.org/2000/svg" xmlns:xlink="http://www.w3.org/1999/xlink" x="0px" y="0px"
	 viewBox="0 0 80 80" style="enable-background:new 0 0 80 80;" xml:space="preserve">
<style type="text/css">
	.st0{fill:none;stroke:#000000;stroke-width:15;stroke-miterlimit:10;}
</style>
<g>
	<path d="M44.26,56.54c-1.6,0-3.09,0-4.58,0c-10.54,0-21.08,0-31.62,0c-0.46,0-0.92,0.04-1.37-0.04c-0.95-0.17-1.45-0.77-1.44-1.74
		c0.01-0.96,0.52-1.56,1.47-1.71c0.45-0.07,0.91-0.04,1.37-0.04c11.54,0,23.07,0,34.61,0c0.5,0,0.99,0,1.56,0
		c0.11-0.38,0.22-0.73,0.32-1.07c1.34-4.64,5.51-7.81,10.23-7.79c4.74,0.02,8.91,3.19,10.18,7.84c0.22,0.81,0.52,1.05,1.33,1.04
		c2.49-0.05,4.98-0.03,7.47-0.01c1.44,0.01,2.23,0.65,2.22,1.77c-0.01,1.12-0.79,1.74-2.24,1.75c-2.53,0.01-5.06,0.02-7.59-0.01
		c-0.63-0.01-0.93,0.15-1.13,0.82c-1.45,4.95-5.43,8.06-10.26,8.06c-4.85,0-8.88-3.19-10.32-8.18
		C44.4,57.03,44.35,56.84,44.26,56.54z M54.78,47.73c-3.97,0.01-7.13,3.18-7.07,7.12c0.05,3.92,3.16,6.98,7.08,6.99
		c3.98,0,7.07-3.12,7.05-7.12C61.81,50.8,58.71,47.72,54.78,47.73z"/>
	<g>
		<path d="M44.26,53.54c-6.14,0-12.28,0-18.42,0c-2.96,0-5.93,0-8.89,0c-1.65,0-3.29,0-4.94,0c-1.64,0-4.14-1.01-3.94,1.24
			c0.18,2.01,1.91,1.24,3.86,1.24c1.28,0,2.56,0,3.85,0c3.2,0,6.41,0,9.61,0c6.29,0,12.58,0,18.86,0c1.34,0,2.51-0.94,2.89-2.2
			c2.47-8.26,11.44-8.46,14.95-1.02c0.84,1.79,1.45,2.67,3.42,3.13c1.17,0.28,2.41,0.09,3.6,0.08c0.93,0,1.87,0,2.8,0
			c0.78-1.96,0.44-2.78-1.01-2.46c-1.24-0.59-5.59-0.32-6.99,0.55c-1.72,1.07-1.95,3.44-3.01,4.99c-4.21,6.17-11.94,2.83-13.76-3.34
			c-1.09-3.7-6.88-2.12-5.79,1.6c2.37,8.04,10.36,13.51,18.65,9.99c1.98-0.84,3.65-2.1,5.03-3.75c1.14-1.36,1.82-3.4,3.01-4.03
			c2.08-1.11,5.69,0.59,8.08-0.47c1.45-0.64,2.5-1.9,2.76-3.48c0.73-4.5-3.48-5.52-6.98-5.58c-3.26-0.05-3.88,0.52-5.43-2.13
			c-1.17-1.99-2.91-3.73-4.9-4.89c-8.49-4.94-17.64,0.59-20.23,9.23c0.96-0.73,1.93-1.47,2.89-2.2c-9.49,0-18.98,0-28.48,0
			c-4.12,0-13.51-1.82-13.53,4.75c-0.02,6.6,9.61,4.78,13.71,4.78c9.43,0,18.86,0,28.3,0C48.12,59.54,48.13,53.54,44.26,53.54z"/>
		<path d="M54.78,44.73c-5.5,0.3-10.11,4.37-10.07,10.12c0.03,5.5,4.62,9.96,10.08,9.99c5.42,0.03,9.82-4.37,10.03-9.73
			C65.05,49.26,60.37,45.01,54.78,44.73c-3.86-0.2-3.85,5.8,0,6c5.22,0.27,5.26,8.11,0.01,8.1c-5.28-0.01-5.25-7.82-0.01-8.1
			C58.62,50.52,58.64,44.52,54.78,44.73z"/>
	</g>
</g>
<g>
	<path d="M13.58,32.41c-2.16,0-4.27,0-6.38,0c-1.03,0-1.78-0.41-1.95-1.51c-0.17-1.17,0.6-2,1.94-2.02
		c2.11-0.03,4.22-0.01,6.41-0.01c0.5-2.24,1.44-4.19,3.06-5.77c5.77-5.63,15.29-3.16,17.58,4.59c0.28,0.95,0.65,1.2,1.6,1.19
		c12.45-0.03,24.91-0.02,37.36-0.02c0.46,0,0.93-0.04,1.36,0.06c0.91,0.21,1.46,0.81,1.42,1.77c-0.04,0.95-0.58,1.54-1.54,1.66
		c-0.49,0.06-0.99,0.05-1.49,0.05c-12.37,0-24.74,0.01-37.11-0.02c-0.95,0-1.33,0.24-1.6,1.2c-1.32,4.6-5.47,7.68-10.18,7.67
		c-4.69-0.01-8.81-3.14-10.16-7.72C13.82,33.22,13.73,32.91,13.58,32.41z M31.16,30.7c0.02-3.93-3.05-7.08-6.94-7.12
		c-3.97-0.04-7.16,3.06-7.21,7.01c-0.05,3.9,3.18,7.15,7.09,7.15C27.98,37.74,31.15,34.59,31.16,30.7z"/>
	<g>
		<path d="M13.58,29.41c-1.83,0-4.79-0.95-4.8,1.23c-0.01,2.18,2.99,1.23,4.82,1.23c1.31,0,2.55-0.93,2.89-2.2
			c1.35-4.95,6.35-8.45,11.31-5.66c3.23,1.82,2.99,6.46,6.47,7.68c2.13,0.74,5.27,0.2,7.47,0.19c3.28-0.01,6.55-0.01,9.83-0.01
			c3.28,0,6.55,0,9.83,0c2.97,0,6.92,0.65,9.83,0c0.66,0,1.31,0,1.97,0c-0.08-0.82-0.16-1.64-0.24-2.45c-0.37-0.37-5.29,0-5.86,0
			c-3.26,0-6.51,0-9.77,0c-6.18,0-12.37,0-18.55-0.02c-4.74-0.01-5.7,0.35-7.83,4.32c-3.76,7.02-12.37,5.03-14.48-2.11
			c-1.09-3.7-6.88-2.12-5.79,1.6c1.82,6.19,6.58,11.05,13.38,11.06c2.81,0,5.58-0.91,7.87-2.52c1.16-0.82,2.16-1.81,3-2.95
			c0.16-0.22,2.18-4.43,0.9-3.4c0.9-0.73,5.57,0.01,6.84,0.01c2.28,0,4.56,0.01,6.84,0.01c5.21,0,10.42,0,15.63,0
			c3.99,0,14.88,1.83,13.73-5.51c-0.47-3-2.99-3.91-5.68-4.04c-4.57-0.21-9.19,0-13.76,0c-5.24,0-10.49,0-15.73,0.01
			c-1.96,0-3.94,0.11-5.9,0.01c-2.25,0.13-2.61,0.07-1.09-0.17c-0.25-0.62-0.52-1.22-0.83-1.81c-1.75-4.76-8.37-7.21-12.98-6.81
			c-6.24,0.54-10.61,5.14-12.19,10.97c0.96-0.73,1.93-1.47,2.89-2.2c-3.85-0.01-11.67-1.09-11.35,5.03
			c0.3,5.72,7.54,4.51,11.33,4.51C17.44,35.41,17.45,29.41,13.58,29.41z"/>
		<path d="M34.16,30.7c-0.26-5.44-4.26-10.09-9.94-10.12c-5.52-0.03-10.15,4.48-10.21,10.01c-0.06,5.37,4.4,9.89,9.71,10.13
			C29.55,40.97,33.84,36.27,34.16,30.7c0.23-3.86-5.77-3.84-6,0c-0.31,5.26-8.22,5.15-8.15-0.12c0.07-5.27,7.91-5.11,8.15,0.12
			C28.35,34.55,34.35,34.57,34.16,30.7z"/>
	</g>
</g>
</svg>
